<svg width="79" height="39" viewBox="0 0 79 39" fill="none" xmlns="http://www.w3.org/2000/svg">
<path d="M2.27002 35.6201C2.27002 35.6201 4.88002 32.4201 2.27002 28.0601H37.2L38.09 28.7701L38.4 32.7701L37.78 35.0801L36.98 35.7501L2.27002 35.6201Z" fill="#EBD08E"/>
<path d="M1.4399 35.1199L0.819902 35.7699V36.4799H38.4299C38.4299 36.4799 39.0699 36.4799 39.0399 34.6099V28.6999C39.0399 28.6999 38.9499 27.4899 37.8799 27.4299H0.649902V28.1899L1.0399 28.7199H37.1999C37.4799 29.2799 37.9599 30.4299 37.9399 31.9499C37.9199 33.3699 37.4799 34.4499 37.1999 34.9999C25.2799 35.0399 13.3599 35.0799 1.4399 35.1199Z" fill="#179900"/>
<path d="M2.27002 26.6799C2.27002 26.6799 4.88002 23.4799 2.27002 19.1199H37.2L38.09 19.8299L38.4 23.8299L37.78 26.1399L36.98 26.8099L2.27002 26.6799Z" fill="#EBD08E"/>
<path d="M1.4399 26.17L0.819902 26.82V27.53H38.4299C38.4299 27.53 39.0699 27.53 39.0399 25.66V19.75C39.0399 19.75 38.9499 18.54 37.8799 18.48H0.649902V19.24L1.0399 19.77H37.1999C37.4799 20.33 37.9599 21.48 37.9399 23C37.9199 24.42 37.4799 25.5 37.1999 26.05C25.2799 26.09 13.3599 26.13 1.4399 26.17Z" fill="#D84D00"/>
<path d="M2.27002 17.6699C2.27002 17.6699 4.88002 14.4699 2.27002 10.1099H37.2L38.09 10.8199L38.4 14.8199L37.78 17.1299L36.98 17.7999L2.27002 17.6699Z" fill="#EBD08E"/>
<path d="M1.4399 17.17L0.819902 17.82V18.53H38.4299C38.4299 18.53 39.0699 18.53 39.0399 16.66V10.75C39.0399 10.75 38.9499 9.53998 37.8799 9.47998H0.649902V10.24L1.0399 10.77H37.1999C37.4799 11.33 37.9599 12.48 37.9399 14C37.9199 15.42 37.4799 16.5 37.1999 17.05C25.2799 17.09 13.3599 17.13 1.4399 17.17Z" fill="#248FE8"/>
<path d="M2.27002 8.65985C2.27002 8.65985 4.88002 5.45985 2.27002 1.09985H37.2L38.09 1.80985L38.4 5.80985L37.78 8.11985L36.98 8.78985L2.27002 8.65985Z" fill="#EBD08E"/>
<path d="M1.4399 8.15997L0.819902 8.80997V9.51997H38.4299C38.4299 9.51997 39.0699 9.51997 39.0399 7.64997V1.73997C39.0399 1.73997 38.9499 0.529971 37.8799 0.469971H0.649902V1.22997L1.0399 1.75997H37.1999C37.4799 2.31997 37.9599 3.46997 37.9399 4.98997C37.9199 6.40997 37.4799 7.48997 37.1999 8.03997C25.2799 8.07997 13.3599 8.11997 1.4399 8.15997Z" fill="#FCBB00"/>
<path d="M37.21 19.72C37.21 19.73 39.05 19.72 39.05 19.72V19.85H37.26L37.21 19.72Z" fill="#AA3900"/>
<path d="M37.21 26.0099C37.21 25.9999 39.05 26.0099 39.05 26.0099V25.8799H37.26L37.21 26.0099Z" fill="#AA3900"/>
<path d="M37.21 28.72C37.21 28.73 39.05 28.72 39.05 28.72V28.85H37.26L37.21 28.72Z" fill="#147500"/>
<path d="M37.21 35.0099C37.21 34.9999 39.05 35.0099 39.05 35.0099V34.8799H37.26L37.21 35.0099Z" fill="#147500"/>
<path d="M40.6399 34.1799H39.6599V19.3599C39.2699 19.7399 38.8899 20.1099 38.4999 20.4899C38.4999 25.8299 38.4999 31.1799 38.4999 36.5199H21.9899L21.1799 37.3299H39.7699V35.7999H41.1499V34.1699L40.6399 34.1899V34.1799Z" fill="#A4A4A4"/>
<path d="M64.0199 11.9799C64.0199 12.8599 63.4699 13.5999 62.6999 13.8999L61.6899 21.0399L61.6699 21.1499L60.3399 21.8499H55.3299L54.8999 26.3499L54.8699 26.6799L52.9399 26.9799L53.0099 26.3499L53.7199 19.7099H59.8099L60.0399 17.7699L60.1799 16.5799L58.5099 17.5799H54.5799L54.0799 16.2499V16.2199C54.0699 16.2199 58.3999 16.2199 58.3999 16.2199L60.5999 14.2599L61.0899 13.9299H61.2699C60.4699 13.6399 59.8999 12.8699 59.8999 11.9799C59.8999 11.0899 60.8199 9.91992 61.9599 9.91992C63.0999 9.91992 64.0199 10.8399 64.0199 11.9799Z" fill="#34AA30"/>
<path d="M57.59 30.0299L53.44 31.0099L49.23 28.8799L46.77 26.5799L46.8 26.5099L46.96 26.1099L49.97 18.6299L50.25 18.3599L51.81 16.8299L52.25 16.4099L51.24 15.4799L51.95 14.6099L54.08 16.2599L55.23 17.1499L54.85 17.5799L54.34 18.1699L53.28 17.3599L53.01 17.7999L51.67 19.9699C52.07 21.1599 50.99 21.9899 50.99 21.9899L50.97 22.8499L50.01 24.4499L51.67 26.3599H56.66L56.79 26.2999L57.56 30.0299H57.59Z" fill="#053F51"/>
<path d="M63.6299 22.3401L65.5799 16.4001C65.5799 16.4001 65.1099 15.7201 64.6499 16.5701C64.1799 17.4101 64.3399 17.5301 64.3399 17.5301C64.3399 17.5301 63.3599 18.5601 63.6099 19.1401L62.7399 21.0301L57.8399 21.1001C57.8399 21.1001 56.3499 21.4401 57.1599 22.7601C57.9699 24.0701 60.3899 22.9301 60.3899 22.9301L63.6299 22.3601V22.3401Z" fill="#053F51"/>
<path d="M68.0998 4.80004H56.8298C54.7398 5.20004 53.7398 7.87004 53.7398 7.87004L50.2498 18.36L47.4998 26.62L47.4398 26.82L46.7998 26.51L46.2998 26.27L46.4298 25.86L52.3398 7.34003C53.6698 2.95003 56.3398 3.22004 56.3398 3.22004H69.8898V4.65004H69.6598V21.23H71.2098L71.4398 23.65H68.0798V4.81004L68.0998 4.80004Z" fill="#001B38"/>
<path d="M49.4899 31.9299L49.0599 32.3599L45.3499 36.0699H40.3499V31.3099L40.9499 30.9599V5.6499H45.2599V7.3399H43.6999V27.2699L44.3199 27.8299H45.8999L46.0499 27.7999L46.8399 27.6499L47.8999 29.3599L49.4899 31.9299Z" fill="#053F51"/>
<path d="M46.32 29.23L46.28 29.33L46.06 29.88L45.88 30.33L43.71 31.06V27.26L44.33 27.82H45.38C45.38 27.65 45.38 27.48 45.38 27.31L46.05 27.79L46.12 27.84L46.32 29.22V29.23Z" fill="#001B38"/>
<path d="M78.1699 35.7601C77.6699 35.7401 77.1799 35.7301 76.6799 35.7201C76.6499 35.6301 76.6099 35.5301 76.5799 35.4401C76.5199 35.2601 76.4499 35.0801 76.3899 34.9001C75.9899 34.9001 75.5799 34.8801 75.1799 34.8801C73.3699 34.8401 71.5499 34.8001 69.7399 34.7701C69.2599 34.7701 68.7899 34.7501 68.3099 34.7401C68.2599 34.7401 68.1999 34.7401 68.1499 34.7401C68.0399 34.7401 67.9299 34.7401 67.8099 34.7401C67.7199 35.0901 67.6299 35.4401 67.5399 35.7801H52.1499C52.1599 35.7101 52.2099 35.4301 52.1299 35.1001C52.0899 34.9401 52.0199 34.7701 51.8999 34.6101C51.7499 34.4101 51.5799 34.2801 51.4299 34.2001C51.3399 34.1501 51.2699 34.1201 51.2199 34.1001C51.0599 33.9701 50.8899 33.8401 50.7299 33.7101C50.4399 33.4801 50.1499 33.2501 49.8599 33.0201C49.5899 32.8101 49.3299 32.5901 49.0599 32.3701C48.9999 32.3201 48.9399 32.2801 48.8799 32.2301C48.2899 31.7501 47.7099 31.2701 47.1299 30.8001C46.7699 30.5001 46.4099 30.2001 46.0499 29.9001C45.8999 29.7701 45.7499 29.6501 45.5999 29.5201C45.5299 29.4601 45.4499 29.4001 45.3799 29.3301C45.3799 28.8301 45.3799 28.3401 45.3799 27.8401C45.3799 27.6701 45.3799 27.5001 45.3799 27.3301C45.3799 26.9601 45.3799 26.5901 45.3799 26.2201C45.4899 26.1101 45.6899 25.9301 45.9899 25.8601C46.1399 25.8301 46.2999 25.8301 46.4499 25.8601C46.6399 25.9001 46.8199 25.9801 46.9799 26.1101C47.1299 26.2201 47.2699 26.3701 47.3799 26.5401C47.4299 26.5701 47.4699 26.6001 47.5199 26.6201C49.0299 27.5401 50.5499 28.4601 52.0599 29.3801C53.3399 29.3701 54.6299 29.3601 55.9099 29.3501C55.8599 28.8801 55.7899 27.6801 56.2899 26.3601C56.4499 25.9401 56.6599 25.5101 56.9499 25.0901C57.4599 24.3401 58.0799 23.7801 58.7299 23.3801C60.5899 22.2101 62.6599 22.2701 62.8499 22.2701C63.1199 22.2701 63.3999 22.2701 63.6699 22.2701C65.1499 22.2901 66.6399 22.3001 68.1199 22.3201C69.0599 22.3201 69.9999 22.3401 70.9399 22.3501V20.8201H74.5599C74.7299 20.8401 75.2899 20.9201 75.7699 21.4001C76.2099 21.8401 76.3099 22.3401 76.3299 22.5201C76.3799 22.8501 76.4899 23.5801 76.6499 24.6301C76.8199 25.7501 77.0299 27.2401 77.2799 29.0101C77.5499 30.9501 77.8599 33.2301 78.1799 35.7501L78.1699 35.7601Z" fill="#EFA51D"/>
<path d="M52.1598 35.76C52.1598 35.76 52.2198 30.52 49.3198 30.28L50.8598 34.01L52.1598 35.76Z" fill="#754500"/>
<path d="M67.5498 35.7599C67.8798 33.4099 68.2698 32.23 68.7198 32.2C68.8798 32.2 69.0498 32.34 69.2298 32.64L70.8698 34.4299L68.1998 34.7299C67.9798 35.07 67.7598 35.41 67.5398 35.75L67.5498 35.7599Z" fill="#754500"/>
<path d="M47.0098 38.15C49.462 38.15 51.4498 36.1622 51.4498 33.71C51.4498 31.2579 49.462 29.27 47.0098 29.27C44.5577 29.27 42.5698 31.2579 42.5698 33.71C42.5698 36.1622 44.5577 38.15 47.0098 38.15Z" fill="black"/>
<path d="M47.0098 36.64C48.628 36.64 49.9398 35.3282 49.9398 33.71C49.9398 32.0918 48.628 30.78 47.0098 30.78C45.3916 30.78 44.0798 32.0918 44.0798 33.71C44.0798 35.3282 45.3916 36.64 47.0098 36.64Z" fill="#E0BB91"/>
<path d="M47.01 35.93C48.2361 35.93 49.23 34.9361 49.23 33.71C49.23 32.4839 48.2361 31.49 47.01 31.49C45.784 31.49 44.79 32.4839 44.79 33.71C44.79 34.9361 45.784 35.93 47.01 35.93Z" fill="#E0BB91"/>
<path d="M47.01 36.2299C45.62 36.2299 44.49 35.0999 44.49 33.7099C44.49 32.3199 45.62 31.1899 47.01 31.1899C48.4 31.1899 49.53 32.3199 49.53 33.7099C49.53 35.0999 48.4 36.2299 47.01 36.2299ZM47.01 31.7999C45.95 31.7999 45.09 32.6599 45.09 33.7199C45.09 34.7799 45.95 35.6399 47.01 35.6399C48.07 35.6399 48.93 34.7799 48.93 33.7199C48.93 32.6599 48.07 31.7999 47.01 31.7999Z" fill="#B58451"/>
<path d="M72.44 38.15C74.8921 38.15 76.88 36.1622 76.88 33.71C76.88 31.2579 74.8921 29.27 72.44 29.27C69.9879 29.27 68 31.2579 68 33.71C68 36.1622 69.9879 38.15 72.44 38.15Z" fill="black"/>
<path d="M72.44 36.64C74.0582 36.64 75.37 35.3282 75.37 33.71C75.37 32.0918 74.0582 30.78 72.44 30.78C70.8218 30.78 69.51 32.0918 69.51 33.71C69.51 35.3282 70.8218 36.64 72.44 36.64Z" fill="#E0BB91"/>
<path d="M72.44 35.93C73.666 35.93 74.66 34.9361 74.66 33.71C74.66 32.4839 73.666 31.49 72.44 31.49C71.2139 31.49 70.22 32.4839 70.22 33.71C70.22 34.9361 71.2139 35.93 72.44 35.93Z" fill="#E0BB91"/>
<path d="M72.4399 36.2299C71.0499 36.2299 69.9199 35.0999 69.9199 33.7099C69.9199 32.3199 71.0499 31.1899 72.4399 31.1899C73.8299 31.1899 74.9599 32.3199 74.9599 33.7099C74.9599 35.0999 73.8299 36.2299 72.4399 36.2299ZM72.4399 31.7999C71.3799 31.7999 70.5199 32.6599 70.5199 33.7199C70.5199 34.7799 71.3799 35.6399 72.4399 35.6399C73.4999 35.6399 74.3599 34.7799 74.3599 33.7199C74.3599 32.6599 73.4999 31.7999 72.4399 31.7999Z" fill="#B58451"/>
<path d="M53.2998 17.3599L53.0298 17.7999L51.8198 16.8299L52.2598 16.4099C52.2598 16.4099 53.1798 17.2799 53.2998 17.3699V17.3599Z" fill="#2D2C29"/>
<path d="M61.8498 15.3999L60.0498 17.7699L60.1898 16.5799L61.8498 15.3999Z" fill="#007F03"/>
<path d="M69.6699 4.6499V5.2299L68.0999 5.3299V4.7999L69.6699 4.6499Z" fill="black"/>
<path d="M43.7099 7.34009H40.95V8.76009H43.7099V7.34009Z" fill="#232323"/>
<path d="M2.6499 1.75H37.2099L37.5399 2.51L2.6499 1.75Z" fill="#C6A765"/>
<path d="M2.6499 10.77H37.2099L37.5399 11.54L2.6499 10.77Z" fill="#C6A765"/>
<path d="M2.6499 19.7H37.2099L37.5399 20.47L2.6499 19.7Z" fill="#C6A765"/>
<path d="M2.6499 28.77H37.2099L37.5399 29.54L2.6499 28.77Z" fill="#C6A765"/>
<path d="M37.21 1.75C37.21 1.76 39.05 1.75 39.05 1.75V1.88H37.26L37.21 1.75Z" fill="#CC9200"/>
<path d="M37.21 8.04992C37.21 8.03992 39.05 8.04992 39.05 8.04992V7.91992H37.26L37.21 8.04992Z" fill="#CC9200"/>
<path d="M37.21 10.77C37.21 10.78 39.05 10.77 39.05 10.77V10.9H37.26L37.21 10.77Z" fill="#1173B7"/>
<path d="M37.21 17.0599C37.21 17.0499 39.05 17.0599 39.05 17.0599V16.9299H37.26L37.21 17.0599Z" fill="#1173B7"/>
</svg>
