<svg height="60" viewBox="0 0 30 44" fill="none" xmlns="http://www.w3.org/2000/svg">
<path d="M24.4099 18.4299C23.9299 18.2499 23.4399 18.4699 23.2499 18.9899C23.0699 19.4699 23.2499 19.9699 23.7399 20.1599C24.2499 20.3599 24.7099 20.0999 24.8999 19.6199C25.0899 19.1099 24.8999 18.6199 24.4099 18.4399V18.4299ZM27.6199 10.5899C26.8899 10.3099 26.0099 10.2299 25.4299 10.3899V11.3899C25.8799 11.2599 26.4899 11.2999 26.9899 11.4899C27.8599 11.8299 28.1199 12.4699 27.8499 13.1799C27.6099 13.7999 27.0599 14.2099 26.1599 14.7099C25.1499 15.2799 24.5899 15.9999 24.3899 16.7799L24.2799 17.1499L25.3599 17.5599L25.4799 17.1899C25.7099 16.4699 26.1599 15.9399 27.0399 15.4499C27.9999 14.9099 28.7899 14.4299 29.1499 13.4899C29.5499 12.4399 29.1999 11.1799 27.6099 10.5699L27.6199 10.5899Z" fill="#E5543C" stroke="#B72C15" stroke-miterlimit="10"/>
<path d="M7.59998 18.1399C7.35998 17.6499 6.86998 17.4599 6.39998 17.6899C5.92998 17.9199 5.76998 18.4299 6.00998 18.9199C6.23998 19.3899 6.72998 19.5899 7.19998 19.3599C7.68998 19.1199 7.81998 18.6099 7.58998 18.1399H7.59998ZM6.24998 16.0599C5.87998 15.3999 5.79998 14.7099 6.04998 13.7299C6.31998 12.6599 6.49998 11.7599 6.04998 10.8499C5.54998 9.83991 4.39998 9.22991 2.86998 9.98991C2.16998 10.3399 1.50998 10.9199 1.22998 11.4599L1.95998 12.1399C2.16998 11.7199 2.61998 11.2999 3.09998 11.0699C3.94998 10.6699 4.58998 10.9099 4.92998 11.5899C5.21998 12.1899 5.14998 12.8699 4.88998 13.8699C4.61998 14.9899 4.75998 15.8999 5.19998 16.5799L5.39998 16.9099L6.43998 16.3999L6.25998 16.0599H6.24998Z" fill="#E5543C" stroke="#B72C15" stroke-miterlimit="10"/>
<path d="M14.7699 11.49C14.0999 11.49 13.6299 12 13.6399 12.71C13.6399 13.38 14.1199 13.89 14.7899 13.88C15.4999 13.88 15.9299 13.35 15.9199 12.68C15.9199 11.97 15.4399 11.48 14.7699 11.49ZM18.1499 3.31001C18.1299 1.85001 17.1099 0.510006 14.9099 0.530006C13.8899 0.540006 12.8099 0.860006 12.1799 1.33001L12.6599 2.53001C13.1299 2.16001 13.8999 1.92001 14.5899 1.91001C15.7999 1.91001 16.4199 2.56001 16.4299 3.53001C16.4399 4.39001 15.9699 5.15001 15.1199 6.18001C14.1799 7.34001 13.8499 8.48001 13.9799 9.51001L14.0299 10.01L15.5299 9.99001L15.5099 9.49001C15.4399 8.51001 15.7299 7.67001 16.5599 6.66001C17.4699 5.55001 18.1799 4.61001 18.1599 3.30001L18.1499 3.31001Z" fill="#E5543C" stroke="#B72C15" stroke-miterlimit="10"/>
<path d="M24.84 26.51C24.84 26.61 24.81 26.71 24.77 26.8C24.71 27.18 24.65 27.56 24.58 27.93C24.58 27.96 24.57 28 24.56 28.03C24.56 28.06 24.55 28.09 24.54 28.12C24.54 28.14 24.53 28.17 24.52 28.19C24.52 28.22 24.51 28.25 24.5 28.28C24.48 28.37 24.46 28.45 24.44 28.54C24.29 29.2 24.12 29.84 23.92 30.47C23.3 32.43 22.55 34.76 21.05 36.15C21.01 36.2 20.97 36.26 20.92 36.33C20.89 36.37 20.86 36.42 20.83 36.47C20.82 36.49 20.8 36.51 20.79 36.53C20.59 36.87 20.48 37.2 20.41 37.44V43.06C18.78 43.19 17.03 43.27 15.18 43.28C13.04 43.29 11.03 43.21 9.17001 43.06V36.64C9.08001 36.28 8.99001 35.91 8.91001 35.55C8.90001 35.51 8.89001 35.47 8.88001 35.43C8.88001 35.39 8.86001 35.35 8.85001 35.31C8.02001 34.13 7.96001 32.63 7.94001 30.13C7.94001 29.72 7.94001 29.31 7.94001 28.9V28.77C7.93001 26.7 7.94001 24.62 7.99001 22.57C7.99001 22.46 8.01001 22.07 8.31001 21.76C8.40001 21.67 8.43001 21.59 8.45001 21.54C8.48001 21.46 8.50001 21.43 8.66001 21.43H9.47001C9.51001 21.99 9.76001 22.48 10.17 22.8C10.39 22.97 10.64 23.08 10.88 23.1C10.9 23.1 10.91 23.1 10.93 23.1C10.94 23.1 10.96 23.1 10.97 23.1C10.98 23.1 11 23.1 11.01 23.1C11.03 23.1 11.04 23.1 11.06 23.1C11.11 23.1 11.15 23.1 11.2 23.08C11.79 22.94 12.22 22.22 12.21 21.43H18.18V10.37C18.2 10.19 18.28 9.83002 18.55 9.49002C18.65 9.35002 18.89 9.11002 19.25 8.97002C19.87 8.74002 20.43 8.97002 20.58 9.06002C21.25 9.40002 21.46 10.08 21.52 10.31C21.52 10.33 21.52 10.35 21.53 10.37C21.56 18.17 21.58 21.89 21.6 22.06C21.6 22.07 21.61 22.21 21.63 22.41V22.59C21.64 22.59 21.64 24.37 21.64 24.37L24.12 25.35C24.5 25.5 24.78 25.88 24.82 26.31C24.82 26.39 24.82 26.47 24.82 26.55L24.84 26.51Z" fill="#FFEC33" stroke="#FFBC00" stroke-miterlimit="10"/>
<path d="M20.8901 27.6599C20.2001 27.8999 19.3301 28.2899 18.4301 28.9299C16.6801 30.1699 15.7501 31.7099 15.3001 32.6099C15.8301 31.4699 16.3601 30.33 16.8801 29.19C16.4501 29.21 16.0301 29.22 15.6001 29.24C15.3901 29.16 15.0601 29.07 14.6401 29.07C14.2001 29.07 13.8601 29.1799 13.6501 29.2599C13.0501 29.2599 12.4501 29.2599 11.8401 29.2599C11.6201 29.1499 11.2301 28.99 10.7201 28.99C10.4401 28.99 10.2001 29.0299 10.0201 29.0799C9.30012 29.0099 8.59012 28.9299 7.87012 28.8599C8.99012 28.1199 10.0301 27.65 10.8301 27.35C12.4701 26.74 13.9401 26.5299 15.0201 26.4599C15.4101 26.4599 15.8101 26.46 16.2001 26.45C16.8701 26.6 17.5401 26.75 18.2101 26.89L19.0101 26.9299L20.8901 27.67V27.6599Z" fill="#FFBC00"/>
<path d="M17.0401 19.5601H15.8501C15.1874 19.5601 14.6501 20.0973 14.6501 20.7601V28.0301C14.6501 28.6928 15.1874 29.2301 15.8501 29.2301H17.0401C17.7029 29.2301 18.2401 28.6928 18.2401 28.0301V20.7601C18.2401 20.0973 17.7029 19.5601 17.0401 19.5601Z" fill="#FFEC33"/>
<path d="M18.1901 20.29C18.0001 19.83 17.5501 19.51 17.0301 19.51H15.8401C15.1501 19.51 14.5901 20.07 14.5901 20.76V28.03C14.5901 28.1 14.5901 28.17 14.6101 28.23C14.6101 28.28 14.6301 28.32 14.6401 28.36C14.6601 28.45 14.7001 28.54 14.7401 28.62C14.8501 28.83 15.0201 29 15.2201 29.11C15.4001 29.22 15.6101 29.28 15.8401 29.28H17.0301C17.1501 29.28 17.2701 29.26 17.3801 29.23C17.5101 29.19 17.6401 29.13 17.7501 29.05C17.7801 29.03 17.8001 29.01 17.8301 28.99C17.8501 28.97 17.8701 28.95 17.8901 28.93C18.1301 28.7 18.2701 28.38 18.2701 28.03V20.76C18.2701 20.59 18.2401 20.43 18.1801 20.29H18.1901ZM18.1801 28.04C18.1801 28.4 18.0201 28.72 17.7601 28.93C17.6801 28.99 17.6001 29.05 17.5101 29.09C17.4001 29.14 17.2801 29.18 17.1501 29.19C17.1201 29.19 17.1001 29.19 17.0701 29.19C17.0601 29.19 17.0501 29.19 17.0301 29.19H15.8401C15.3201 29.19 14.8801 28.84 14.7401 28.36C14.7101 28.26 14.6901 28.15 14.6901 28.04V20.77C14.6901 20.14 15.2101 19.62 15.8401 19.62H17.0301C17.6601 19.62 18.1801 20.14 18.1801 20.77V28.04Z" fill="#FFBC00"/>
<path d="M13.43 20.3101H12.24C11.5773 20.3101 11.04 20.8473 11.04 21.5101V28.1101C11.04 28.7728 11.5773 29.3101 12.24 29.3101H13.43C14.0928 29.3101 14.63 28.7728 14.63 28.1101V21.5101C14.63 20.8473 14.0928 20.3101 13.43 20.3101Z" fill="#FFEC33"/>
<path d="M14.65 25.58C14.65 25.57 14.63 25.55 14.63 25.54V25.44C14.63 25.42 14.61 25.41 14.61 25.39C14.61 25.37 14.59 25.36 14.59 25.34V26.91C14.59 26.87 14.61 26.83 14.61 26.79C14.61 26.74 14.63 26.7 14.63 26.65V26.48H14.65C14.65 26.42 14.67 26.35 14.67 26.28V25.62C14.67 25.61 14.65 25.59 14.65 25.58ZM14.65 25.58C14.65 25.57 14.63 25.55 14.63 25.54V25.44C14.63 25.42 14.61 25.41 14.61 25.39C14.61 25.37 14.59 25.36 14.59 25.34V26.91C14.59 26.87 14.61 26.83 14.61 26.79C14.61 26.74 14.63 26.7 14.63 26.65V26.48H14.65C14.65 26.42 14.67 26.35 14.67 26.28V25.62C14.67 25.61 14.65 25.59 14.65 25.58ZM14.67 21.4C14.67 21.35 14.66 21.3 14.65 21.26C14.64 21.2 14.62 21.14 14.6 21.08C14.42 20.6 13.96 20.26 13.42 20.26H12.23C11.54 20.26 10.98 20.82 10.98 21.51V28.11C10.98 28.52 11.18 28.89 11.49 29.11C11.7 29.26 11.96 29.36 12.23 29.36H13.42C13.69 29.36 13.95 29.27 14.15 29.12C14.15 29.12 14.16 29.12 14.17 29.11C14.4 28.93 14.57 28.68 14.64 28.38C14.64 28.34 14.66 28.29 14.66 28.25C14.66 28.2 14.66 28.16 14.66 28.11V21.51C14.66 21.47 14.66 21.44 14.66 21.4H14.67ZM13.54 29.25H13.53C13.5 29.25 13.46 29.25 13.43 29.25H12.24C12.22 29.25 12.2 29.25 12.18 29.25H12.16C11.56 29.21 11.09 28.71 11.09 28.1V21.5C11.09 20.87 11.61 20.35 12.24 20.35H13.43C14.03 20.35 14.52 20.81 14.58 21.39C14.58 21.43 14.58 21.46 14.58 21.5V28.1C14.58 28.69 14.13 29.19 13.55 29.24L13.54 29.25ZM14.65 25.58C14.65 25.57 14.63 25.55 14.63 25.54V25.44C14.63 25.42 14.61 25.41 14.61 25.39C14.61 25.37 14.59 25.36 14.59 25.34V26.91C14.59 26.87 14.61 26.83 14.61 26.79C14.61 26.74 14.63 26.7 14.63 26.65V26.48H14.65C14.65 26.42 14.67 26.35 14.67 26.28V25.62C14.67 25.61 14.65 25.59 14.65 25.58ZM14.65 25.58C14.65 25.57 14.63 25.55 14.63 25.54V25.44C14.63 25.42 14.61 25.41 14.61 25.39C14.61 25.37 14.59 25.36 14.59 25.34V26.91C14.59 26.87 14.61 26.83 14.61 26.79C14.61 26.74 14.63 26.7 14.63 26.65V26.48H14.65C14.65 26.42 14.67 26.35 14.67 26.28V25.62C14.67 25.61 14.65 25.59 14.65 25.58Z" fill="#FFBC00"/>
<path d="M9.74004 21.03H8.74004C8.0773 21.03 7.54004 21.5673 7.54004 22.23V27.92C7.54004 28.5828 8.0773 29.12 8.74004 29.12H9.74004C10.4028 29.12 10.94 28.5828 10.94 27.92V22.23C10.94 21.5673 10.4028 21.03 9.74004 21.03Z" fill="#FFEC33"/>
<path d="M10.99 22.08C10.91 21.46 10.39 20.98 9.75 20.98H8.75C8.06 20.98 7.5 21.54 7.5 22.23V27.92C7.5 28.28 7.65 28.6 7.9 28.83C7.92 28.85 7.93 28.87 7.95 28.88C8.17 29.06 8.45 29.17 8.75 29.17H9.75C9.99 29.17 10.21 29.1 10.4 28.99C10.44 28.97 10.47 28.94 10.5 28.92C10.73 28.74 10.9 28.49 10.97 28.19C10.97 28.15 10.99 28.11 10.99 28.07C10.99 28.02 10.99 27.97 10.99 27.92V22.23C10.99 22.18 10.99 22.13 10.99 22.08ZM10.89 27.93C10.89 28.49 10.48 28.96 9.95 29.06C9.88 29.07 9.81 29.08 9.74 29.08H8.74C8.49 29.08 8.27 29 8.08 28.87C8.04 28.84 8.01 28.82 7.97 28.79C7.96 28.79 7.95 28.77 7.94 28.76C7.72 28.55 7.59 28.26 7.59 27.93V22.24C7.59 21.61 8.11 21.09 8.74 21.09H9.74C10.37 21.09 10.89 21.61 10.89 22.24V27.93Z" fill="#FFBC00"/>
<path d="M25.1501 26.7301L24.7201 27.8401C24.5301 28.0601 24.3201 28.2801 24.0901 28.5001C23.1101 29.4201 22.0501 29.9301 21.2301 30.2301C20.4901 29.1301 19.7501 28.0201 19.0101 26.9201C18.1201 26.8601 17.2301 26.8001 16.3501 26.7401C16.1001 26.6801 15.5601 26.5201 15.0801 26.0501C14.3501 25.3201 14.3201 24.4001 14.3101 24.2001C14.3601 23.5401 14.9301 23.0401 15.5901 23.0901L19.4901 23.3701C19.5701 23.3701 19.6401 23.3901 19.7201 23.4101C19.8201 23.4101 19.9301 23.4401 20.0301 23.4801L24.4601 25.1901C25.0801 25.4301 25.3901 26.1201 25.1501 26.7401V26.7301Z" fill="#FFEC33"/>
<path d="M19.05 26.8901V26.8701C19.04 26.8701 19.04 26.8701 19.04 26.8701L18.29 26.8201H18.24H18.19L17.79 26.7901C17.9 26.8101 18.01 26.8401 18.11 26.8601C18.13 26.8601 18.16 26.8601 18.19 26.8601C18.21 26.8601 18.22 26.8601 18.24 26.8601C18.26 26.8601 18.27 26.8601 18.29 26.8601C18.53 26.8801 18.77 26.8901 19.01 26.9101L19.09 26.9401L19.05 26.8801V26.8901ZM15.11 26.0101C14.93 25.8301 14.8 25.6501 14.7 25.4601C14.7 25.4501 14.68 25.4301 14.68 25.4101C14.68 25.3901 14.66 25.3801 14.66 25.3601C14.66 25.3401 14.64 25.3301 14.64 25.3101C14.64 25.2901 14.62 25.2701 14.62 25.2601C14.62 25.2401 14.6 25.2201 14.6 25.2001V25.3201C14.6 25.3401 14.62 25.3501 14.62 25.3701C14.62 25.3901 14.64 25.4001 14.64 25.4201V25.5201C14.64 25.5401 14.66 25.5501 14.66 25.5601C14.66 25.5701 14.68 25.5901 14.68 25.6001C14.68 25.6101 14.7 25.6201 14.7 25.6401V25.5401C14.74 25.6101 14.79 25.6801 14.84 25.7401C14.86 25.7601 14.87 25.7801 14.89 25.8001C14.93 25.8501 14.97 25.9001 15.02 25.9501C15.04 25.9701 15.06 26.0001 15.09 26.0201C15.12 26.0501 15.16 26.0801 15.19 26.1101C15.22 26.1301 15.24 26.1601 15.27 26.1801C15.31 26.2101 15.35 26.2401 15.38 26.2701C15.4 26.2901 15.42 26.3001 15.44 26.3101C15.47 26.3301 15.51 26.3501 15.54 26.3701C15.55 26.3701 15.57 26.3901 15.58 26.3901C15.58 26.3901 15.59 26.3901 15.6 26.4001C15.63 26.4001 15.66 26.4001 15.7 26.4001C15.51 26.3001 15.31 26.1601 15.12 25.9701L15.11 26.0101ZM19.05 26.8901V26.8701C19.04 26.8701 19.04 26.8701 19.04 26.8701L18.29 26.8201H18.24H18.19L17.79 26.7901C17.9 26.8101 18.01 26.8401 18.11 26.8601C18.13 26.8601 18.16 26.8601 18.19 26.8601C18.21 26.8601 18.22 26.8601 18.24 26.8601C18.26 26.8601 18.27 26.8601 18.29 26.8601C18.53 26.8801 18.77 26.8901 19.01 26.9101L19.09 26.9401L19.05 26.8801V26.8901ZM14.7 25.4701C14.7 25.4601 14.68 25.4401 14.68 25.4201C14.68 25.4001 14.66 25.3901 14.66 25.3701C14.66 25.3501 14.64 25.3401 14.64 25.3201C14.64 25.3001 14.62 25.2801 14.62 25.2701C14.62 25.2501 14.6 25.2301 14.6 25.2101V25.3301C14.6 25.3501 14.62 25.3601 14.62 25.3801C14.62 25.4001 14.64 25.4101 14.64 25.4301V25.5301C14.64 25.5501 14.66 25.5601 14.66 25.5701C14.66 25.5801 14.68 25.6001 14.68 25.6101C14.68 25.6201 14.7 25.6301 14.7 25.6501V25.5501C14.74 25.6201 14.79 25.6901 14.84 25.7501C14.86 25.7701 14.87 25.7901 14.89 25.8101C14.93 25.8601 14.97 25.9101 15.02 25.9601C15.04 25.9801 15.06 26.0101 15.09 26.0301C15.12 26.0601 15.16 26.0901 15.19 26.1201C15.22 26.1401 15.24 26.1701 15.27 26.1901C15.31 26.2201 15.35 26.2501 15.38 26.2801C15.4 26.3001 15.42 26.3101 15.44 26.3201C15.47 26.3401 15.51 26.3601 15.54 26.3801C15.55 26.3801 15.57 26.4001 15.58 26.4001C15.58 26.4001 15.59 26.4001 15.6 26.4101C15.63 26.4101 15.66 26.4101 15.7 26.4101C15.51 26.3101 15.31 26.1701 15.12 25.9801C14.94 25.8001 14.81 25.6201 14.71 25.4301L14.7 25.4701ZM25.17 25.7901C25.03 25.4801 24.79 25.2501 24.48 25.1301L21.94 24.1501L21.73 24.0701L21.67 24.0501L21.01 23.8001L20.8 23.7201L20.05 23.4301C19.95 23.3901 19.85 23.3701 19.75 23.3501H19.73C19.66 23.3301 19.58 23.3101 19.5 23.3101L18.29 23.2201H18.24H18.19L15.6 23.0401C15.27 23.0201 14.95 23.1201 14.7 23.3401C14.7 23.3401 14.69 23.3401 14.68 23.3501L14.66 23.3701L14.64 23.3901L14.62 23.4101C14.62 23.4101 14.6 23.4301 14.6 23.4401C14.42 23.6401 14.3 23.9001 14.29 24.1901C14.29 24.4301 14.34 24.9301 14.6 25.4401C14.6 25.4601 14.62 25.4701 14.62 25.4901C14.62 25.5101 14.64 25.5201 14.64 25.5401C14.64 25.5601 14.66 25.5701 14.66 25.5801C14.66 25.5901 14.68 25.6101 14.68 25.6201C14.68 25.6301 14.7 25.6401 14.7 25.6601C14.78 25.7901 14.88 25.9201 15 26.0401C15.01 26.0601 15.03 26.0701 15.04 26.0801C15.19 26.2301 15.34 26.3401 15.49 26.4401C15.8 26.6301 16.1 26.7301 16.33 26.7801L18.18 26.9101H18.23H18.28H18.37L18.98 26.9601L19.08 27.1001L19.37 27.5301L19.52 27.7501L19.76 28.1201L21.21 30.2801H21.25C22.2 29.9301 23.05 29.4401 23.79 28.8201C23.91 28.7201 24.02 28.6301 24.13 28.5201C24.27 28.3901 24.41 28.2401 24.55 28.1001C24.56 28.0901 24.57 28.0701 24.59 28.0601C24.63 28.0101 24.67 27.9701 24.71 27.9201C24.73 27.9001 24.75 27.8701 24.77 27.8501L24.83 27.7001L25.05 27.1201L25.15 26.8501L25.19 26.7401C25.31 26.4301 25.3 26.0901 25.17 25.7801V25.7901ZM25.1 26.7101L24.68 27.8101C24.68 27.8101 24.67 27.8201 24.66 27.8301C24.65 27.8501 24.63 27.8701 24.61 27.8801C24.6 27.9001 24.59 27.9101 24.57 27.9201C24.41 28.1101 24.23 28.2901 24.05 28.4501C23.94 28.5601 23.82 28.6601 23.7 28.7601C22.98 29.3601 22.16 29.8301 21.24 30.1601L19.84 28.0801L19.62 27.7501L19.57 27.6701L19.48 27.5401L19.16 27.0601L19.08 26.9501L19.04 26.8901V26.8701C19.03 26.8701 19.03 26.8701 19.03 26.8701L18.28 26.8201H18.23H18.18L17.78 26.7901L16.36 26.6901C16.17 26.6501 15.94 26.5701 15.7 26.4401C15.51 26.3401 15.31 26.2001 15.12 26.0101C14.94 25.8301 14.81 25.6501 14.71 25.4601C14.71 25.4501 14.69 25.4301 14.69 25.4101C14.69 25.3901 14.67 25.3801 14.67 25.3601C14.67 25.3401 14.65 25.3301 14.65 25.3101C14.65 25.2901 14.63 25.2701 14.63 25.2601C14.63 25.2401 14.61 25.2201 14.61 25.2001C14.43 24.7801 14.4 24.3801 14.4 24.1901C14.41 23.9801 14.49 23.7701 14.61 23.6001C14.61 23.5901 14.63 23.5801 14.63 23.5701C14.63 23.5701 14.65 23.5501 14.65 23.5401C14.65 23.5401 14.67 23.5201 14.67 23.5101C14.67 23.5101 14.69 23.4901 14.69 23.4801L14.71 23.4601C14.73 23.4401 14.75 23.4201 14.77 23.4101C14.98 23.2301 15.25 23.1301 15.52 23.1301C15.79 23.1301 15.57 23.1301 15.6 23.1301L18.2 23.3201H18.25H18.3L19.5 23.4101C19.57 23.4101 19.64 23.4301 19.71 23.4401H19.73C19.83 23.4601 19.93 23.4801 20.02 23.5201L21.67 24.1501L24.45 25.2201C24.74 25.3301 24.96 25.5401 25.09 25.8301C25.11 25.8701 25.12 25.9101 25.14 25.9501C25.17 26.0401 25.19 26.1301 25.19 26.2201C25.19 26.3401 25.19 26.4701 25.15 26.5901C25.14 26.6301 25.13 26.6701 25.11 26.7001L25.1 26.7101ZM15.11 26.0101C14.93 25.8301 14.8 25.6501 14.7 25.4601C14.7 25.4501 14.68 25.4301 14.68 25.4101C14.68 25.3901 14.66 25.3801 14.66 25.3601C14.66 25.3401 14.64 25.3301 14.64 25.3101C14.64 25.2901 14.62 25.2701 14.62 25.2601C14.62 25.2401 14.6 25.2201 14.6 25.2001V25.3201C14.6 25.3401 14.62 25.3501 14.62 25.3701C14.62 25.3901 14.64 25.4001 14.64 25.4201V25.5201C14.64 25.5401 14.66 25.5501 14.66 25.5601C14.66 25.5701 14.68 25.5901 14.68 25.6001C14.68 25.6101 14.7 25.6201 14.7 25.6401V25.5401C14.74 25.6101 14.79 25.6801 14.84 25.7401C14.86 25.7601 14.87 25.7801 14.89 25.8001C14.93 25.8501 14.97 25.9001 15.02 25.9501C15.04 25.9701 15.06 26.0001 15.09 26.0201C15.12 26.0501 15.16 26.0801 15.19 26.1101C15.22 26.1301 15.24 26.1601 15.27 26.1801C15.31 26.2101 15.35 26.2401 15.38 26.2701C15.4 26.2901 15.42 26.3001 15.44 26.3101C15.47 26.3301 15.51 26.3501 15.54 26.3701C15.55 26.3701 15.57 26.3901 15.58 26.3901C15.58 26.3901 15.59 26.3901 15.6 26.4001C15.63 26.4001 15.66 26.4001 15.7 26.4001C15.51 26.3001 15.31 26.1601 15.12 25.9701L15.11 26.0101ZM19.05 26.8901V26.8701C19.04 26.8701 19.04 26.8701 19.04 26.8701L18.29 26.8201H18.24H18.19L17.79 26.7901C17.9 26.8101 18.01 26.8401 18.11 26.8601C18.13 26.8601 18.16 26.8601 18.19 26.8601C18.21 26.8601 18.22 26.8601 18.24 26.8601C18.26 26.8601 18.27 26.8601 18.29 26.8601C18.53 26.8801 18.77 26.8901 19.01 26.9101L19.09 26.9401L19.05 26.8801V26.8901ZM15.11 26.0101C14.93 25.8301 14.8 25.6501 14.7 25.4601C14.7 25.4501 14.68 25.4301 14.68 25.4101C14.68 25.3901 14.66 25.3801 14.66 25.3601C14.66 25.3401 14.64 25.3301 14.64 25.3101C14.64 25.2901 14.62 25.2701 14.62 25.2601C14.62 25.2401 14.6 25.2201 14.6 25.2001V25.3201C14.6 25.3401 14.62 25.3501 14.62 25.3701C14.62 25.3901 14.64 25.4001 14.64 25.4201V25.5201C14.64 25.5401 14.66 25.5501 14.66 25.5601C14.66 25.5701 14.68 25.5901 14.68 25.6001C14.68 25.6101 14.7 25.6201 14.7 25.6401V25.5401C14.74 25.6101 14.79 25.6801 14.84 25.7401C14.86 25.7601 14.87 25.7801 14.89 25.8001C14.93 25.8501 14.97 25.9001 15.02 25.9501C15.04 25.9701 15.06 26.0001 15.09 26.0201C15.12 26.0501 15.16 26.0801 15.19 26.1101C15.22 26.1301 15.24 26.1601 15.27 26.1801C15.31 26.2101 15.35 26.2401 15.38 26.2701C15.4 26.2901 15.42 26.3001 15.44 26.3101C15.47 26.3301 15.51 26.3501 15.54 26.3701C15.55 26.3701 15.57 26.3901 15.58 26.3901C15.58 26.3901 15.59 26.3901 15.6 26.4001C15.63 26.4001 15.66 26.4001 15.7 26.4001C15.51 26.3001 15.31 26.1601 15.12 25.9701L15.11 26.0101ZM19.05 26.8901V26.8701C19.04 26.8701 19.04 26.8701 19.04 26.8701L18.29 26.8201H18.24H18.19L17.79 26.7901C17.9 26.8101 18.01 26.8401 18.11 26.8601C18.13 26.8601 18.16 26.8601 18.19 26.8601C18.21 26.8601 18.22 26.8601 18.24 26.8601C18.26 26.8601 18.27 26.8601 18.29 26.8601C18.53 26.8801 18.77 26.8901 19.01 26.9101L19.09 26.9401L19.05 26.8801V26.8901Z" fill="#FFBC00"/>
<path d="M25.1499 26.5201C25.1499 26.5401 25.1499 26.5701 25.1399 26.6001C25.1299 26.6901 25.1099 26.7801 25.0899 26.8701C25.0799 26.9401 25.0699 27.0101 25.0599 27.0901C25.0599 27.1001 25.0599 27.1201 25.0499 27.1301C24.9399 27.5001 24.7599 27.9101 24.4599 28.3101C24.4799 28.3901 24.4999 28.4901 24.4599 28.5301C24.4399 28.5501 24.4199 28.5501 24.4199 28.5501C24.2699 28.6301 24.0999 28.7201 23.9199 28.8401C22.6399 29.6501 22.4199 30.4101 21.8099 30.6701C21.2699 30.9001 20.3499 30.7701 18.6899 29.2801C18.8399 29.0101 18.9899 28.7401 19.1499 28.4601C19.2799 28.2301 19.4099 27.9901 19.5399 27.7601C19.5399 27.7601 19.5399 27.7601 19.5399 27.7501L19.5599 27.7101C19.5599 27.6901 19.5799 27.6801 19.5899 27.6601C19.6099 27.6201 19.6399 27.5801 19.6599 27.5401C19.7199 27.4401 19.7799 27.3301 19.8399 27.2301C19.8699 27.1801 19.8999 27.1201 19.9299 27.0701C20.7499 26.8301 21.5799 26.6001 22.3999 26.3601C23.1599 26.4001 24.0999 26.4501 24.8599 26.4901C24.8799 26.4901 25.1499 26.5101 25.1699 26.5101L25.1499 26.5201Z" fill="#FFEC33"/>
<path d="M25.16 26.81C25.16 26.81 25.16 26.82 25.16 26.83C25.06 27.37 24.84 27.95 24.45 28.53C24.3 29.19 24.13 29.83 23.93 30.46C23.31 32.42 22.5599 34.75 21.0599 36.14C21.0199 36.19 20.98 36.25 20.93 36.32C20.9 36.36 20.87 36.41 20.84 36.46C20.83 36.48 20.81 36.5 20.8 36.52C20.6 36.86 20.49 37.19 20.42 37.43V43.05C19.94 43.08 19.46 43.11 18.99 43.14C18.95 41.23 18.91 39.32 18.87 37.41C18.68 37.47 18.37 37.56 17.98 37.62C16.41 37.86 15.9 37.28 14.13 37.29C13.22 37.29 12.96 37.45 12.12 37.32C11.51 37.22 11.03 37.05 10.7 36.91C10.84 36.95 11.51 37.12 12.21 36.75C12.89 36.4 13.13 35.78 13.19 35.64C14.01 36 17.24 37.3 19.84 35.75C19.86 35.74 19.8799 35.72 19.9099 35.71C20.9699 35.04 21.61 34.14 22.33 32.82C22.85 31.87 23.47 30.6 24.04 29.03C23.85 28.89 23.66 28.74 23.47 28.6C23.71 28.59 24.16 28.53 24.44 28.19C24.5 28.12 24.55 28.03 24.63 27.87C24.95 27.23 25.05 26.67 25.07 26.53C25.1 26.34 25.13 26.08 25.13 25.77C25.16 25.94 25.19 26.11 25.23 26.27C25.25 26.45 25.23 26.64 25.16 26.82V26.81Z" fill="#FFBC00"/>
<path d="M9.38988 29.1101C9.38988 29.1101 10.8599 28.2201 10.9299 25.6101L10.9699 28.6501L10.7599 28.8601L10.1799 29.0101L9.93988 29.1101H9.37988H9.38988Z" fill="#FFBC00"/>
<path d="M13.1599 29.27C13.1599 29.27 14.6299 28.38 14.6999 25.77L14.7399 28.81L14.5299 29.02L13.9499 29.17L13.7099 29.27H13.1499H13.1599Z" fill="#FFBC00"/>
<path d="M16.39 29.27C16.74 29.25 17.05 29.06 17.18 28.77C17.37 28.35 17.09 27.93 17.02 27.83C16.81 27.51 16.52 27.42 16.24 27.26C15.88 27.07 15.41 26.71 14.96 25.99C15.4 26.43 15.81 26.61 16.1 26.68C16.43 26.76 16.63 26.74 17.28 26.79C17.74 26.83 18.12 26.88 18.36 26.92C18.32 27.52 18.29 28.12 18.25 28.73C18.08 28.83 17.92 28.93 17.75 29.03L17.17 29.18L16.93 29.28H16.37L16.39 29.27Z" fill="#FFBC00"/>
<path d="M20.79 23.8L21.34 9.71997L21.59 10.33L21.66 21.17V22.07L21.71 22.55L21.72 24.17L20.79 23.8Z" fill="#FFBC00"/>
<path d="M19.0401 26.8699C19.1601 26.8399 19.2801 26.8199 19.4001 26.7899C19.5801 26.7499 19.7601 26.6999 19.9401 26.6599L18.8101 27.2599L19.0401 26.8699Z" fill="#FFBC00"/>
<path d="M17.62 28.77L17.08 29.15L17 29.43L17.85 29.01L17.6 28.76L17.62 28.77Z" fill="#FFBC00"/>
<path d="M19.3601 27.54C19.5701 27.55 19.7801 27.57 19.9901 27.58C20.3101 27.6 20.6301 27.62 20.9401 27.65L19.4701 27.78L19.3601 27.55V27.54Z" fill="#FFBC00"/>
</svg>
