<svg height="60" viewBox="0 0 40 58" fill="none" xmlns="http://www.w3.org/2000/svg">
<path d="M37.8001 2.57983H2.07012C1.40738 2.57983 0.870117 3.11709 0.870117 3.77983V55.6898C0.870117 56.3526 1.40738 56.8898 2.07012 56.8898H37.8001C38.4629 56.8898 39.0001 56.3526 39.0001 55.6898V3.77983C39.0001 3.11709 38.4629 2.57983 37.8001 2.57983Z" fill="#1B421A" stroke="#231F20" stroke-miterlimit="10"/>
<path d="M37.8001 1.41992H2.07012C1.40738 1.41992 0.870117 1.95718 0.870117 2.61992V54.5299C0.870117 55.1927 1.40738 55.7299 2.07012 55.7299H37.8001C38.4629 55.7299 39.0001 55.1927 39.0001 54.5299V2.61992C39.0001 1.95718 38.4629 1.41992 37.8001 1.41992Z" fill="#425E43" stroke="#231F20" stroke-miterlimit="10"/>
<path d="M35.14 4.3999H4.74004C4.0773 4.3999 3.54004 4.93716 3.54004 5.5999V13.9999C3.54004 14.6626 4.0773 15.1999 4.74004 15.1999H35.14C35.8028 15.1999 36.34 14.6626 36.34 13.9999V5.5999C36.34 4.93716 35.8028 4.3999 35.14 4.3999Z" fill="#1B2444" stroke="#231F20" stroke-miterlimit="10"/>
<path d="M35.14 4.80981H4.74004C4.0773 4.80981 3.54004 5.34707 3.54004 6.00981V14.4098C3.54004 15.0726 4.0773 15.6098 4.74004 15.6098H35.14C35.8028 15.6098 36.34 15.0726 36.34 14.4098V6.00981C36.34 5.34707 35.8028 4.80981 35.14 4.80981Z" fill="#DBD9C3" stroke="#231F20" stroke-miterlimit="10"/>
<path d="M8.49996 18.52H5.40996C4.74722 18.52 4.20996 19.0573 4.20996 19.72V22.81C4.20996 23.4728 4.74722 24.01 5.40996 24.01H8.49996C9.1627 24.01 9.69996 23.4728 9.69996 22.81V19.72C9.69996 19.0573 9.1627 18.52 8.49996 18.52Z" fill="#84194F" stroke="#231F20" stroke-miterlimit="10"/>
<path d="M14.99 18.52H11.9C11.2372 18.52 10.7 19.0573 10.7 19.72V22.81C10.7 23.4728 11.2372 24.01 11.9 24.01H14.99C15.6527 24.01 16.19 23.4728 16.19 22.81V19.72C16.19 19.0573 15.6527 18.52 14.99 18.52Z" fill="#84194F" stroke="#231F20" stroke-miterlimit="10"/>
<path d="M21.4799 18.52H18.3899C17.7272 18.52 17.1899 19.0573 17.1899 19.72V22.81C17.1899 23.4728 17.7272 24.01 18.3899 24.01H21.4799C22.1427 24.01 22.6799 23.4728 22.6799 22.81V19.72C22.6799 19.0573 22.1427 18.52 21.4799 18.52Z" fill="#107542" stroke="#231F20" stroke-miterlimit="10"/>
<path d="M27.9799 18.52H24.8899C24.2272 18.52 23.6899 19.0573 23.6899 19.72V22.81C23.6899 23.4728 24.2272 24.01 24.8899 24.01H27.9799C28.6427 24.01 29.1799 23.4728 29.1799 22.81V19.72C29.1799 19.0573 28.6427 18.52 27.9799 18.52Z" fill="#107542" stroke="#231F20" stroke-miterlimit="10"/>
<path d="M34.4699 18.52H31.3799C30.7172 18.52 30.1799 19.0573 30.1799 19.72V22.81C30.1799 23.4728 30.7172 24.01 31.3799 24.01H34.4699C35.1327 24.01 35.6699 23.4728 35.6699 22.81V19.72C35.6699 19.0573 35.1327 18.52 34.4699 18.52Z" fill="#107542" stroke="#231F20" stroke-miterlimit="10"/>
<path d="M8.49996 25.3201H5.40996C4.74722 25.3201 4.20996 25.8573 4.20996 26.5201V29.6101C4.20996 30.2728 4.74722 30.8101 5.40996 30.8101H8.49996C9.1627 30.8101 9.69996 30.2728 9.69996 29.6101V26.5201C9.69996 25.8573 9.1627 25.3201 8.49996 25.3201Z" fill="#107542" stroke="#231F20" stroke-miterlimit="10"/>
<path d="M14.99 25.3201H11.9C11.2372 25.3201 10.7 25.8573 10.7 26.5201V29.6101C10.7 30.2728 11.2372 30.8101 11.9 30.8101H14.99C15.6527 30.8101 16.19 30.2728 16.19 29.6101V26.5201C16.19 25.8573 15.6527 25.3201 14.99 25.3201Z" fill="#6D3718" stroke="#231F20" stroke-miterlimit="10"/>
<path d="M21.4799 25.3201H18.3899C17.7272 25.3201 17.1899 25.8573 17.1899 26.5201V29.6101C17.1899 30.2728 17.7272 30.8101 18.3899 30.8101H21.4799C22.1427 30.8101 22.6799 30.2728 22.6799 29.6101V26.5201C22.6799 25.8573 22.1427 25.3201 21.4799 25.3201Z" fill="#6D3718" stroke="#231F20" stroke-miterlimit="10"/>
<path d="M27.9799 25.3201H24.8899C24.2272 25.3201 23.6899 25.8573 23.6899 26.5201V29.6101C23.6899 30.2728 24.2272 30.8101 24.8899 30.8101H27.9799C28.6427 30.8101 29.1799 30.2728 29.1799 29.6101V26.5201C29.1799 25.8573 28.6427 25.3201 27.9799 25.3201Z" fill="#6D3718" stroke="#231F20" stroke-miterlimit="10"/>
<path d="M34.4699 25.3201H31.3799C30.7172 25.3201 30.1799 25.8573 30.1799 26.5201V29.6101C30.1799 30.2728 30.7172 30.8101 31.3799 30.8101H34.4699C35.1327 30.8101 35.6699 30.2728 35.6699 29.6101V26.5201C35.6699 25.8573 35.1327 25.3201 34.4699 25.3201Z" fill="#107542" stroke="#231F20" stroke-miterlimit="10"/>
<path d="M8.49996 32.1201H5.40996C4.74722 32.1201 4.20996 32.6574 4.20996 33.3201V36.4101C4.20996 37.0729 4.74722 37.6101 5.40996 37.6101H8.49996C9.1627 37.6101 9.69996 37.0729 9.69996 36.4101V33.3201C9.69996 32.6574 9.1627 32.1201 8.49996 32.1201Z" fill="#107542" stroke="#231F20" stroke-miterlimit="10"/>
<path d="M14.99 32.1201H11.9C11.2372 32.1201 10.7 32.6574 10.7 33.3201V36.4101C10.7 37.0729 11.2372 37.6101 11.9 37.6101H14.99C15.6527 37.6101 16.19 37.0729 16.19 36.4101V33.3201C16.19 32.6574 15.6527 32.1201 14.99 32.1201Z" fill="#6D3718" stroke="#231F20" stroke-miterlimit="10"/>
<path d="M21.4799 32.1201H18.3899C17.7272 32.1201 17.1899 32.6574 17.1899 33.3201V36.4101C17.1899 37.0729 17.7272 37.6101 18.3899 37.6101H21.4799C22.1427 37.6101 22.6799 37.0729 22.6799 36.4101V33.3201C22.6799 32.6574 22.1427 32.1201 21.4799 32.1201Z" fill="#6D3718" stroke="#231F20" stroke-miterlimit="10"/>
<path d="M27.9799 32.1201H24.8899C24.2272 32.1201 23.6899 32.6574 23.6899 33.3201V36.4101C23.6899 37.0729 24.2272 37.6101 24.8899 37.6101H27.9799C28.6427 37.6101 29.1799 37.0729 29.1799 36.4101V33.3201C29.1799 32.6574 28.6427 32.1201 27.9799 32.1201Z" fill="#6D3718" stroke="#231F20" stroke-miterlimit="10"/>
<path d="M34.4699 32.1201H31.3799C30.7172 32.1201 30.1799 32.6574 30.1799 33.3201V36.4101C30.1799 37.0729 30.7172 37.6101 31.3799 37.6101H34.4699C35.1327 37.6101 35.6699 37.0729 35.6699 36.4101V33.3201C35.6699 32.6574 35.1327 32.1201 34.4699 32.1201Z" fill="#107542" stroke="#231F20" stroke-miterlimit="10"/>
<path d="M8.49996 38.9199H5.40996C4.74722 38.9199 4.20996 39.4572 4.20996 40.1199V43.2099C4.20996 43.8727 4.74722 44.4099 5.40996 44.4099H8.49996C9.1627 44.4099 9.69996 43.8727 9.69996 43.2099V40.1199C9.69996 39.4572 9.1627 38.9199 8.49996 38.9199Z" fill="#107542" stroke="#231F20" stroke-miterlimit="10"/>
<path d="M14.99 38.9199H11.9C11.2372 38.9199 10.7 39.4572 10.7 40.1199V43.2099C10.7 43.8727 11.2372 44.4099 11.9 44.4099H14.99C15.6527 44.4099 16.19 43.8727 16.19 43.2099V40.1199C16.19 39.4572 15.6527 38.9199 14.99 38.9199Z" fill="#6D3718" stroke="#231F20" stroke-miterlimit="10"/>
<path d="M21.4799 38.9199H18.3899C17.7272 38.9199 17.1899 39.4572 17.1899 40.1199V43.2099C17.1899 43.8727 17.7272 44.4099 18.3899 44.4099H21.4799C22.1427 44.4099 22.6799 43.8727 22.6799 43.2099V40.1199C22.6799 39.4572 22.1427 38.9199 21.4799 38.9199Z" fill="#6D3718" stroke="#231F20" stroke-miterlimit="10"/>
<path d="M27.9799 38.9199H24.8899C24.2272 38.9199 23.6899 39.4572 23.6899 40.1199V43.2099C23.6899 43.8727 24.2272 44.4099 24.8899 44.4099H27.9799C28.6427 44.4099 29.1799 43.8727 29.1799 43.2099V40.1199C29.1799 39.4572 28.6427 38.9199 27.9799 38.9199Z" fill="#6D3718" stroke="#231F20" stroke-miterlimit="10"/>
<path d="M8.49996 45.72H5.40996C4.74722 45.72 4.20996 46.2572 4.20996 46.92V50.01C4.20996 50.6727 4.74722 51.21 5.40996 51.21H8.49996C9.1627 51.21 9.69996 50.6727 9.69996 50.01V46.92C9.69996 46.2572 9.1627 45.72 8.49996 45.72Z" fill="#107542" stroke="#231F20" stroke-miterlimit="10"/>
<path d="M14.99 45.72H11.9C11.2372 45.72 10.7 46.2572 10.7 46.92V50.01C10.7 50.6727 11.2372 51.21 11.9 51.21H14.99C15.6527 51.21 16.19 50.6727 16.19 50.01V46.92C16.19 46.2572 15.6527 45.72 14.99 45.72Z" fill="#6D3718" stroke="#231F20" stroke-miterlimit="10"/>
<path d="M21.4799 45.72H18.3899C17.7272 45.72 17.1899 46.2572 17.1899 46.92V50.01C17.1899 50.6727 17.7272 51.21 18.3899 51.21H21.4799C22.1427 51.21 22.6799 50.6727 22.6799 50.01V46.92C22.6799 46.2572 22.1427 45.72 21.4799 45.72Z" fill="#6D3718" stroke="#231F20" stroke-miterlimit="10"/>
<path d="M27.9799 45.72H24.8899C24.2272 45.72 23.6899 46.2572 23.6899 46.92V50.01C23.6899 50.6727 24.2272 51.21 24.8899 51.21H27.9799C28.6427 51.21 29.1799 50.6727 29.1799 50.01V46.92C29.1799 46.2572 28.6427 45.72 27.9799 45.72Z" fill="#107542" stroke="#231F20" stroke-miterlimit="10"/>
<path d="M34.4699 38.9299H31.3799C30.7172 38.9299 30.1799 39.4672 30.1799 40.1299V50.0099C30.1799 50.6727 30.7172 51.2099 31.3799 51.2099H34.4699C35.1327 51.2099 35.6699 50.6727 35.6699 50.0099V40.1299C35.6699 39.4672 35.1327 38.9299 34.4699 38.9299Z" fill="#107542" stroke="#231F20" stroke-miterlimit="10"/>
<path d="M8.49996 18.26H5.40996C4.74722 18.26 4.20996 18.7973 4.20996 19.46V22.55C4.20996 23.2128 4.74722 23.75 5.40996 23.75H8.49996C9.1627 23.75 9.69996 23.2128 9.69996 22.55V19.46C9.69996 18.7973 9.1627 18.26 8.49996 18.26Z" fill="#CC5C50" stroke="#231F20" stroke-miterlimit="10"/>
<path d="M14.99 18.26H11.9C11.2372 18.26 10.7 18.7973 10.7 19.46V22.55C10.7 23.2128 11.2372 23.75 11.9 23.75H14.99C15.6527 23.75 16.19 23.2128 16.19 22.55V19.46C16.19 18.7973 15.6527 18.26 14.99 18.26Z" fill="#CC5C50" stroke="#231F20" stroke-miterlimit="10"/>
<path d="M21.4799 18.26H18.3899C17.7272 18.26 17.1899 18.7973 17.1899 19.46V22.55C17.1899 23.2128 17.7272 23.75 18.3899 23.75H21.4799C22.1427 23.75 22.6799 23.2128 22.6799 22.55V19.46C22.6799 18.7973 22.1427 18.26 21.4799 18.26Z" fill="#77A856" stroke="#231F20" stroke-miterlimit="10"/>
<path d="M27.9799 18.26H24.8899C24.2272 18.26 23.6899 18.7973 23.6899 19.46V22.55C23.6899 23.2128 24.2272 23.75 24.8899 23.75H27.9799C28.6427 23.75 29.1799 23.2128 29.1799 22.55V19.46C29.1799 18.7973 28.6427 18.26 27.9799 18.26Z" fill="#77A856" stroke="#231F20" stroke-miterlimit="10"/>
<path d="M34.4699 18.26H31.3799C30.7172 18.26 30.1799 18.7973 30.1799 19.46V22.55C30.1799 23.2128 30.7172 23.75 31.3799 23.75H34.4699C35.1327 23.75 35.6699 23.2128 35.6699 22.55V19.46C35.6699 18.7973 35.1327 18.26 34.4699 18.26Z" fill="#77A856" stroke="#231F20" stroke-miterlimit="10"/>
<path d="M8.49996 25.0601H5.40996C4.74722 25.0601 4.20996 25.5973 4.20996 26.2601V29.3501C4.20996 30.0128 4.74722 30.5501 5.40996 30.5501H8.49996C9.1627 30.5501 9.69996 30.0128 9.69996 29.3501V26.2601C9.69996 25.5973 9.1627 25.0601 8.49996 25.0601Z" fill="#77A856" stroke="#231F20" stroke-miterlimit="10"/>
<path d="M14.99 25.0601H11.9C11.2372 25.0601 10.7 25.5973 10.7 26.2601V29.3501C10.7 30.0128 11.2372 30.5501 11.9 30.5501H14.99C15.6527 30.5501 16.19 30.0128 16.19 29.3501V26.2601C16.19 25.5973 15.6527 25.0601 14.99 25.0601Z" fill="#A8904A" stroke="#231F20" stroke-miterlimit="10"/>
<path d="M21.4799 25.0601H18.3899C17.7272 25.0601 17.1899 25.5973 17.1899 26.2601V29.3501C17.1899 30.0128 17.7272 30.5501 18.3899 30.5501H21.4799C22.1427 30.5501 22.6799 30.0128 22.6799 29.3501V26.2601C22.6799 25.5973 22.1427 25.0601 21.4799 25.0601Z" fill="#A8904A" stroke="#231F20" stroke-miterlimit="10"/>
<path d="M27.9799 25.0601H24.8899C24.2272 25.0601 23.6899 25.5973 23.6899 26.2601V29.3501C23.6899 30.0128 24.2272 30.5501 24.8899 30.5501H27.9799C28.6427 30.5501 29.1799 30.0128 29.1799 29.3501V26.2601C29.1799 25.5973 28.6427 25.0601 27.9799 25.0601Z" fill="#A8904A" stroke="#231F20" stroke-miterlimit="10"/>
<path d="M34.4699 25.0601H31.3799C30.7172 25.0601 30.1799 25.5973 30.1799 26.2601V29.3501C30.1799 30.0128 30.7172 30.5501 31.3799 30.5501H34.4699C35.1327 30.5501 35.6699 30.0128 35.6699 29.3501V26.2601C35.6699 25.5973 35.1327 25.0601 34.4699 25.0601Z" fill="#77A856" stroke="#231F20" stroke-miterlimit="10"/>
<path d="M8.49996 31.8601H5.40996C4.74722 31.8601 4.20996 32.3974 4.20996 33.0601V36.1501C4.20996 36.8129 4.74722 37.3501 5.40996 37.3501H8.49996C9.1627 37.3501 9.69996 36.8129 9.69996 36.1501V33.0601C9.69996 32.3974 9.1627 31.8601 8.49996 31.8601Z" fill="#77A856" stroke="#231F20" stroke-miterlimit="10"/>
<path d="M14.99 31.8601H11.9C11.2372 31.8601 10.7 32.3974 10.7 33.0601V36.1501C10.7 36.8129 11.2372 37.3501 11.9 37.3501H14.99C15.6527 37.3501 16.19 36.8129 16.19 36.1501V33.0601C16.19 32.3974 15.6527 31.8601 14.99 31.8601Z" fill="#A8904A" stroke="#231F20" stroke-miterlimit="10"/>
<path d="M21.4799 31.8601H18.3899C17.7272 31.8601 17.1899 32.3974 17.1899 33.0601V36.1501C17.1899 36.8129 17.7272 37.3501 18.3899 37.3501H21.4799C22.1427 37.3501 22.6799 36.8129 22.6799 36.1501V33.0601C22.6799 32.3974 22.1427 31.8601 21.4799 31.8601Z" fill="#A8904A" stroke="#231F20" stroke-miterlimit="10"/>
<path d="M27.9799 31.8601H24.8899C24.2272 31.8601 23.6899 32.3974 23.6899 33.0601V36.1501C23.6899 36.8129 24.2272 37.3501 24.8899 37.3501H27.9799C28.6427 37.3501 29.1799 36.8129 29.1799 36.1501V33.0601C29.1799 32.3974 28.6427 31.8601 27.9799 31.8601Z" fill="#A8904A" stroke="#231F20" stroke-miterlimit="10"/>
<path d="M34.4699 31.8601H31.3799C30.7172 31.8601 30.1799 32.3974 30.1799 33.0601V36.1501C30.1799 36.8129 30.7172 37.3501 31.3799 37.3501H34.4699C35.1327 37.3501 35.6699 36.8129 35.6699 36.1501V33.0601C35.6699 32.3974 35.1327 31.8601 34.4699 31.8601Z" fill="#77A856" stroke="#231F20" stroke-miterlimit="10"/>
<path d="M8.49996 38.6599H5.40996C4.74722 38.6599 4.20996 39.1972 4.20996 39.8599V42.9499C4.20996 43.6127 4.74722 44.1499 5.40996 44.1499H8.49996C9.1627 44.1499 9.69996 43.6127 9.69996 42.9499V39.8599C9.69996 39.1972 9.1627 38.6599 8.49996 38.6599Z" fill="#77A856" stroke="#231F20" stroke-miterlimit="10"/>
<path d="M14.99 38.6599H11.9C11.2372 38.6599 10.7 39.1972 10.7 39.8599V42.9499C10.7 43.6127 11.2372 44.1499 11.9 44.1499H14.99C15.6527 44.1499 16.19 43.6127 16.19 42.9499V39.8599C16.19 39.1972 15.6527 38.6599 14.99 38.6599Z" fill="#A8904A" stroke="#231F20" stroke-miterlimit="10"/>
<path d="M21.4799 38.6599H18.3899C17.7272 38.6599 17.1899 39.1972 17.1899 39.8599V42.9499C17.1899 43.6127 17.7272 44.1499 18.3899 44.1499H21.4799C22.1427 44.1499 22.6799 43.6127 22.6799 42.9499V39.8599C22.6799 39.1972 22.1427 38.6599 21.4799 38.6599Z" fill="#A8904A" stroke="#231F20" stroke-miterlimit="10"/>
<path d="M27.9799 38.6599H24.8899C24.2272 38.6599 23.6899 39.1972 23.6899 39.8599V42.9499C23.6899 43.6127 24.2272 44.1499 24.8899 44.1499H27.9799C28.6427 44.1499 29.1799 43.6127 29.1799 42.9499V39.8599C29.1799 39.1972 28.6427 38.6599 27.9799 38.6599Z" fill="#A8904A" stroke="#231F20" stroke-miterlimit="10"/>
<path d="M8.49996 45.46H5.40996C4.74722 45.46 4.20996 45.9972 4.20996 46.66V49.75C4.20996 50.4127 4.74722 50.95 5.40996 50.95H8.49996C9.1627 50.95 9.69996 50.4127 9.69996 49.75V46.66C9.69996 45.9972 9.1627 45.46 8.49996 45.46Z" fill="#77A856" stroke="#231F20" stroke-miterlimit="10"/>
<path d="M14.99 45.46H11.9C11.2372 45.46 10.7 45.9972 10.7 46.66V49.75C10.7 50.4127 11.2372 50.95 11.9 50.95H14.99C15.6527 50.95 16.19 50.4127 16.19 49.75V46.66C16.19 45.9972 15.6527 45.46 14.99 45.46Z" fill="#A8904A" stroke="#231F20" stroke-miterlimit="10"/>
<path d="M21.4799 45.46H18.3899C17.7272 45.46 17.1899 45.9972 17.1899 46.66V49.75C17.1899 50.4127 17.7272 50.95 18.3899 50.95H21.4799C22.1427 50.95 22.6799 50.4127 22.6799 49.75V46.66C22.6799 45.9972 22.1427 45.46 21.4799 45.46Z" fill="#A8904A" stroke="#231F20" stroke-miterlimit="10"/>
<path d="M27.9799 45.46H24.8899C24.2272 45.46 23.6899 45.9972 23.6899 46.66V49.75C23.6899 50.4127 24.2272 50.95 24.8899 50.95H27.9799C28.6427 50.95 29.1799 50.4127 29.1799 49.75V46.66C29.1799 45.9972 28.6427 45.46 27.9799 45.46Z" fill="#77A856" stroke="#231F20" stroke-miterlimit="10"/>
<path d="M34.4699 38.6599H31.3799C30.7172 38.6599 30.1799 39.1972 30.1799 39.8599V49.7399C30.1799 50.4027 30.7172 50.9399 31.3799 50.9399H34.4699C35.1327 50.9399 35.6699 50.4027 35.6699 49.7399V39.8599C35.6699 39.1972 35.1327 38.6599 34.4699 38.6599Z" fill="#77A856" stroke="#231F20" stroke-miterlimit="10"/>
<path d="M22.26 15.2899H25.88L31.24 5.62988H27.62L22.26 15.2899Z" fill="#FFFDEE"/>
<path d="M26.47 15.2899H27.51L32.87 5.62988H31.83L26.47 15.2899Z" fill="#FFFDEE"/>
<path d="M6.23995 7.01992V9.85992C6.23995 10.0099 6.11995 10.1299 5.96995 10.1299C5.81995 10.1299 5.69995 10.0099 5.69995 9.85992V7.01992C5.69995 6.86992 5.81995 6.74992 5.96995 6.74992C6.11995 6.74992 6.23995 6.86992 6.23995 7.01992ZM6.24995 12.8499V13.3599C6.24995 13.5099 6.12995 13.6299 5.97995 13.6299C5.82995 13.6299 5.70995 13.5099 5.70995 13.3599V12.8499C5.70995 12.6999 5.82995 12.5799 5.97995 12.5799C6.12995 12.5799 6.24995 12.6999 6.24995 12.8499ZM9.11995 6.41992C9.26995 6.41992 9.39995 6.54992 9.39995 6.69992C9.39995 6.84992 9.26995 6.97992 9.11995 6.97992H6.29995C6.14995 6.97992 6.01995 6.84992 6.01995 6.69992C6.01995 6.54992 6.14995 6.41992 6.29995 6.41992H9.11995ZM9.13995 9.88992C9.28995 9.88992 9.41995 10.0199 9.41995 10.1699C9.41995 10.3199 9.28995 10.4499 9.13995 10.4499H6.31995C6.16995 10.4499 6.03995 10.3199 6.03995 10.1699C6.03995 10.0199 6.16995 9.88992 6.31995 9.88992H9.13995ZM9.13995 13.4099C9.28995 13.4099 9.41995 13.5399 9.41995 13.6899C9.41995 13.8399 9.28995 13.9699 9.13995 13.9699H6.31995C6.16995 13.9699 6.03995 13.8399 6.03995 13.6899C6.03995 13.5399 6.16995 13.4099 6.31995 13.4099H9.13995ZM9.73995 7.01992V7.52992C9.73995 7.67992 9.61995 7.79992 9.46995 7.79992C9.31995 7.79992 9.19995 7.67992 9.19995 7.52992V7.01992C9.19995 6.86992 9.31995 6.74992 9.46995 6.74992C9.61995 6.74992 9.73995 6.86992 9.73995 7.01992ZM9.73995 10.5199V13.3599C9.73995 13.5099 9.61995 13.6299 9.46995 13.6299C9.31995 13.6299 9.19995 13.5099 9.19995 13.3599V10.5199C9.19995 10.3699 9.31995 10.2499 9.46995 10.2499C9.61995 10.2499 9.73995 10.3699 9.73995 10.5199Z" fill="#4C4A3B"/>
<path d="M11.9599 6.28003C12.1099 6.28003 12.2399 6.41003 12.2399 6.56003C12.2399 6.71003 12.1099 6.84003 11.9599 6.84003H11.1799C11.0299 6.84003 10.8999 6.71003 10.8999 6.56003C10.8999 6.41003 11.0299 6.28003 11.1799 6.28003H11.9599ZM11.9699 13.41C12.1199 13.41 12.2499 13.54 12.2499 13.69C12.2499 13.84 12.1199 13.97 11.9699 13.97H11.1899C11.0399 13.97 10.9099 13.84 10.9099 13.69C10.9099 13.54 11.0399 13.41 11.1899 13.41H11.9699ZM12.6799 6.91003V9.75003C12.6799 9.90003 12.5599 10.02 12.4099 10.02C12.2599 10.02 12.1399 9.90003 12.1399 9.75003V6.91003C12.1399 6.76003 12.2599 6.64003 12.4099 6.64003C12.5599 6.64003 12.6799 6.76003 12.6799 6.91003ZM12.6999 10.4V13.24C12.6999 13.39 12.5799 13.51 12.4299 13.51C12.2799 13.51 12.1599 13.39 12.1599 13.24V10.4C12.1599 10.25 12.2799 10.13 12.4299 10.13C12.5799 10.13 12.6999 10.25 12.6999 10.4ZM13.6699 6.30003C13.8199 6.30003 13.9499 6.43003 13.9499 6.58003C13.9499 6.73003 13.8199 6.86003 13.6699 6.86003H12.8899C12.7399 6.86003 12.6099 6.73003 12.6099 6.58003C12.6099 6.43003 12.7399 6.30003 12.8899 6.30003H13.6699ZM13.6699 13.41C13.8199 13.41 13.9499 13.54 13.9499 13.69C13.9499 13.84 13.8199 13.97 13.6699 13.97H12.8899C12.7399 13.97 12.6099 13.84 12.6099 13.69C12.6099 13.54 12.7399 13.41 12.8899 13.41H13.6699Z" fill="#4C4A3B"/>
<path d="M15.6599 7.01992V9.85992C15.6599 10.0099 15.5399 10.1299 15.3899 10.1299C15.2399 10.1299 15.1199 10.0099 15.1199 9.85992V7.01992C15.1199 6.86992 15.2399 6.74992 15.3899 6.74992C15.5399 6.74992 15.6599 6.86992 15.6599 7.01992ZM15.6599 12.8499V13.3599C15.6599 13.5099 15.5399 13.6299 15.3899 13.6299C15.2399 13.6299 15.1199 13.5099 15.1199 13.3599V12.8499C15.1199 12.6999 15.2399 12.5799 15.3899 12.5799C15.5399 12.5799 15.6599 12.6999 15.6599 12.8499ZM18.5399 6.41992C18.6899 6.41992 18.8199 6.54992 18.8199 6.69992C18.8199 6.84992 18.6899 6.97992 18.5399 6.97992H15.7199C15.5699 6.97992 15.4399 6.84992 15.4399 6.69992C15.4399 6.54992 15.5699 6.41992 15.7199 6.41992H18.5399ZM18.5499 9.88992C18.6999 9.88992 18.8299 10.0199 18.8299 10.1699C18.8299 10.3199 18.6999 10.4499 18.5499 10.4499H15.7299C15.5799 10.4499 15.4499 10.3199 15.4499 10.1699C15.4499 10.0199 15.5799 9.88992 15.7299 9.88992H18.5499ZM18.5499 13.4099C18.6999 13.4099 18.8299 13.5399 18.8299 13.6899C18.8299 13.8399 18.6999 13.9699 18.5499 13.9699H15.7299C15.5799 13.9699 15.4499 13.8399 15.4499 13.6899C15.4499 13.5399 15.5799 13.4099 15.7299 13.4099H18.5499ZM19.1499 7.01992V7.52992C19.1499 7.67992 19.0299 7.79992 18.8799 7.79992C18.7299 7.79992 18.6099 7.67992 18.6099 7.52992V7.01992C18.6099 6.86992 18.7299 6.74992 18.8799 6.74992C19.0299 6.74992 19.1499 6.86992 19.1499 7.01992ZM19.1499 10.5199V13.3599C19.1499 13.5099 19.0299 13.6299 18.8799 13.6299C18.7299 13.6299 18.6099 13.5099 18.6099 13.3599V10.5199C18.6099 10.3699 18.7299 10.2499 18.8799 10.2499C19.0299 10.2499 19.1499 10.3699 19.1499 10.5199Z" fill="#4C4A3B"/>
<path d="M20.8601 7.02V9.86C20.8601 10.01 20.7401 10.13 20.5901 10.13C20.4401 10.13 20.3201 10.01 20.3201 9.86V7.02C20.3201 6.87 20.4401 6.75 20.5901 6.75C20.7401 6.75 20.8601 6.87 20.8601 7.02ZM20.8601 10.52V13.36C20.8601 13.51 20.7401 13.63 20.5901 13.63C20.4401 13.63 20.3201 13.51 20.3201 13.36V10.52C20.3201 10.37 20.4401 10.25 20.5901 10.25C20.7401 10.25 20.8601 10.37 20.8601 10.52ZM23.7501 13.41C23.9001 13.41 24.0301 13.54 24.0301 13.69C24.0301 13.84 23.9001 13.97 23.7501 13.97H20.9301C20.7801 13.97 20.6501 13.84 20.6501 13.69C20.6501 13.54 20.7801 13.41 20.9301 13.41H23.7501ZM24.3501 7.02V9.86C24.3501 10.01 24.2301 10.13 24.0801 10.13C23.9301 10.13 23.8101 10.01 23.8101 9.86V7.02C23.8101 6.87 23.9301 6.75 24.0801 6.75C24.2301 6.75 24.3501 6.87 24.3501 7.02ZM24.3501 10.52V13.36C24.3501 13.51 24.2301 13.63 24.0801 13.63C23.9301 13.63 23.8101 13.51 23.8101 13.36V10.52C23.8101 10.37 23.9301 10.25 24.0801 10.25C24.2301 10.25 24.3501 10.37 24.3501 10.52Z" fill="#4C4A3B"/>
</svg>
