<svg width="150" viewBox="0 0 657 207" fill="none" xmlns="http://www.w3.org/2000/svg">
    <path opacity="0.98" d="M247.8 0.399902V127.9H247.9V151.2H247.8V206.3H657V0.399902H247.8ZM370.7 36.1999H394V58.6999H370.7V36.1999ZM312.8 153.1C299.3 153.1 291.7 146 291.7 146H291.4C291.4 146 291.7 148.9 291.7 153.1V183.3H263.9V95.1999C263.9 92.8999 262.6 91.6999 260.4 91.6999H254.3V68.3999H278.3C286.3 68.3999 289.1 72.0999 289.1 75.5999C289.1 76.5999 289.1 77.0999 289.1 77.0999H289.4C289.4 77.0999 296.6 66.4999 314.2 66.4999C336.7 66.4999 351.5 84.1999 351.5 109.9C351.4 136 334.8 153.1 312.8 153.1ZM406.1 151.2H380.4C372.2 151.2 368.7 147.7 368.7 139.5V95.2999C368.7 92.9999 367.4 91.7999 365.2 91.7999H359.1V68.4999H384.8C393 68.4999 396.5 71.9999 396.5 80.1999V124.4C396.5 126.7 397.8 127.9 400 127.9H406.1V151.2ZM468.6 151.5C468.6 151.5 465.6 152 461 152C447.8 152 422.2 148.5 422.2 120.6V89.9999H411.6V68.2999H423V45.9999H450V68.3999H467.4V89.9999H450V116.9C450 126.2 459.5 127.5 464.8 127.5C467.1 127.5 468.5 127.3 468.5 127.3V151.5H468.6ZM524.2 129.9C536.1 129.9 546.2 121.2 546.2 121.2L557.3 139.9C557.3 139.9 543.9 153.1 521.9 153.1C492.3 153.1 476.4 131.7 476.4 109.7C476.4 85.3999 492.8 66.3999 519.5 66.3999C543.9 66.3999 557.8 83.3999 557.8 106.4C557.8 109.1 557.2 114.8 557.2 114.8H505C507 125.3 515.4 129.9 524.2 129.9ZM603.2 153.1C579.4 153.1 566.5 138 566.5 138L578.9 120.2C578.9 120.2 590.5 132.1 603.2 132.1C607.2 132.1 609.5 131 609.5 128.1C609.5 121.2 568 118.9 568 92.0999C568 74.2999 584.6 66.4999 602.1 66.4999C615.6 66.4999 634.3 70.3999 634.3 85.2999V95.0999H610.2V91.0999C610.2 88.7999 606.7 87.1999 602.6 87.1999C598.7 87.1999 595.2 88.4999 595.2 91.0999C595.2 99.5999 637.2 98.4999 637.2 126.3C637.1 143 622.5 153.1 603.2 153.1Z" fill="#57AE52"/>
    <path opacity="0.98" d="M307.2 89.8999C298.8 89.8999 291 95.9999 291 110.3C291 120.3 296.3 130.1 307.2 130.1C315.9 130.1 323.4 123 323.4 110.3C323.4 97.8999 316.8 89.8999 307.2 89.8999Z" fill="#57AE52"/>
    <path opacity="0.98" d="M519.6 87.2998C511.6 87.2998 507.5 91.7998 505.8 97.8998H529.4C529.4 92.7998 525.4 87.2998 519.6 87.2998Z" fill="#57AE52"/>
    <path d="M55.9001 36.2H0.100098V60.2999H10.5001V151.2H39.3001V115.7H55.9001C78.3001 115.7 93.4001 98.9999 93.4001 75.7999C93.4001 52.5999 78.3001 36.2 55.9001 36.2ZM50.1001 91.4999H39.3001V60.2999H50.6001C59.4001 60.2999 63.9001 66.6 63.9001 75.7C63.9001 84.9 59.4001 91.4999 50.1001 91.4999Z" fill="#57AE52"/>
    <path d="M178 127.8C175.7 127.8 174.5 126.5 174.5 124.3V100.2C174.5 81.1999 165 66.3999 136.1 66.3999C126.6 66.3999 103.1 67.3999 103.1 85.8999V95.0999H128.8V91.3999C128.8 88.1999 132.5 87.3999 136 87.3999C142.9 87.3999 146.6 90.2999 146.6 98.1999V99.1999H145.5C132.6 99.1999 97.4001 101.9 97.4001 126.5C97.4001 142.9 110.1 153.2 125.6 153.2C143 153.2 148.8 141.1 148.8 141.1H149.1C149.1 141.1 149.1 141.9 149.1 142.5C149.1 146.2 152 151.2 160 151.2H184.1V127.9H178V127.8ZM146.9 117.2C146.9 124 140.5 131.8 133.2 131.8C127.7 131.8 125.3 128.8 125.3 124.9C125.3 118.3 135.4 115.9 144.3 115.9H146.9V117.2Z" fill="#57AE52"/>
    <path d="M236.2 127.8V151.1H210.6C202.4 151.1 198.9 147.6 198.9 139.4V62.9999C198.9 60.6999 197.6 59.4999 195.4 59.4999H189.3V36.2H215C223.2 36.2 226.7 39.6999 226.7 47.8999V124.3C226.7 126.6 228 127.8 230.2 127.8H236.2Z" fill="#57AE52"/>
</svg>
