<svg width="92" height="70" viewBox="0 0 92 70" fill="none" xmlns="http://www.w3.org/2000/svg">
<path d="M91.4606 0H0V70H91.4606V0Z" fill="#FF7680"/>
<path d="M73.4345 4.01025H16.1401V65.3744H73.4345V4.01025Z" fill="#FF7680"/>
<path d="M73.8513 65.5927H15.7429V3.83154H73.8513V65.5927ZM16.5172 65.156H73.0572V4.22859H16.5172V65.156Z" fill="#EBF7FC"/>
<path d="M3.33525 66.5454H0.873535V69.0071H3.33525V66.5454Z" fill="#EBF7FC"/>
<path d="M3.33525 1.25049H0.873535V3.7122H3.33525V1.25049Z" fill="#EBF7FC"/>
<path d="M89.5348 1.25049H87.0731V3.7122H89.5348V1.25049Z" fill="#EBF7FC"/>
<path d="M89.5348 66.5454H87.0731V69.0071H89.5348V66.5454Z" fill="#EBF7FC"/>
<path d="M2.8985 56.54H1.3103V58.1282H2.8985V56.54Z" fill="#EBF7FC"/>
<path d="M2.8985 53.6416H1.3103V55.2298H2.8985V53.6416Z" fill="#EBF7FC"/>
<path d="M2.8985 50.7432H1.3103V52.3314H2.8985V50.7432Z" fill="#EBF7FC"/>
<path d="M2.8985 47.8447H1.3103V49.4329H2.8985V47.8447Z" fill="#EBF7FC"/>
<path d="M2.8985 44.9463H1.3103V46.5345H2.8985V44.9463Z" fill="#EBF7FC"/>
<path d="M2.8985 42.0479H1.3103V43.6361H2.8985V42.0479Z" fill="#EBF7FC"/>
<path d="M2.8985 39.1489H1.3103V40.7371H2.8985V39.1489Z" fill="#EBF7FC"/>
<path d="M2.8985 36.2505H1.3103V37.8387H2.8985V36.2505Z" fill="#EBF7FC"/>
<path d="M2.8985 33.3521H1.3103V34.9403H2.8985V33.3521Z" fill="#EBF7FC"/>
<path d="M2.8985 30.4536H1.3103V32.0418H2.8985V30.4536Z" fill="#EBF7FC"/>
<path d="M2.8985 27.5552H1.3103V29.1434H2.8985V27.5552Z" fill="#EBF7FC"/>
<path d="M2.8985 24.6567H1.3103V26.2449H2.8985V24.6567Z" fill="#EBF7FC"/>
<path d="M2.8985 21.7583H1.3103V23.3465H2.8985V21.7583Z" fill="#EBF7FC"/>
<path d="M2.8985 18.8599H1.3103V20.4481H2.8985V18.8599Z" fill="#EBF7FC"/>
<path d="M2.8985 15.9614H1.3103V17.5496H2.8985V15.9614Z" fill="#EBF7FC"/>
<path d="M2.8985 13.063H1.3103V14.6512H2.8985V13.063Z" fill="#EBF7FC"/>
<path d="M2.8985 10.1646H1.3103V11.7528H2.8985V10.1646Z" fill="#EBF7FC"/>
<path d="M2.8985 7.26611H1.3103V8.85432H2.8985V7.26611Z" fill="#EBF7FC"/>
<path d="M31.1684 13.202C32.6157 13.202 33.7889 12.0288 33.7889 10.5815C33.7889 9.13419 32.6157 7.96094 31.1684 7.96094C29.7211 7.96094 28.5479 9.13419 28.5479 10.5815C28.5479 12.0288 29.7211 13.202 31.1684 13.202Z" fill="#FF7680"/>
<path d="M31.1685 13.5793C29.5009 13.5793 28.1311 12.1896 28.1311 10.5418C28.1311 8.89407 29.5208 7.50439 31.1685 7.50439C32.8163 7.50439 34.206 8.89407 34.206 10.5418C34.206 12.1896 32.8163 13.5793 31.1685 13.5793ZM31.1685 8.2985C29.9377 8.2985 28.9252 9.29112 28.9252 10.5418C28.9252 11.7925 29.9178 12.7852 31.1685 12.7852C32.4192 12.7852 33.4119 11.7925 33.4119 10.5418C33.4119 9.29112 32.4192 8.2985 31.1685 8.2985Z" fill="#EBF7FC"/>
<path d="M38.633 13.202C40.0803 13.202 41.2535 12.0288 41.2535 10.5815C41.2535 9.13419 40.0803 7.96094 38.633 7.96094C37.1857 7.96094 36.0125 9.13419 36.0125 10.5815C36.0125 12.0288 37.1857 13.202 38.633 13.202Z" fill="#FF7680"/>
<path d="M38.6329 13.5793C36.9653 13.5793 35.5955 12.1896 35.5955 10.5418C35.5955 8.89407 36.9851 7.50439 38.6329 7.50439C40.2807 7.50439 41.6703 8.89407 41.6703 10.5418C41.6703 12.1896 40.2807 13.5793 38.6329 13.5793ZM38.6329 8.2985C37.402 8.2985 36.3896 9.29112 36.3896 10.5418C36.3896 11.7925 37.3822 12.7852 38.6329 12.7852C39.8836 12.7852 40.8762 11.7925 40.8762 10.5418C40.8762 9.29112 39.8836 8.2985 38.6329 8.2985Z" fill="#EBF7FC"/>
<path d="M46.0578 13.202C47.5051 13.202 48.6783 12.0288 48.6783 10.5815C48.6783 9.13419 47.5051 7.96094 46.0578 7.96094C44.6105 7.96094 43.4373 9.13419 43.4373 10.5815C43.4373 12.0288 44.6105 13.202 46.0578 13.202Z" fill="#FF7680"/>
<path d="M46.0579 13.5793C44.3903 13.5793 43.0205 12.1896 43.0205 10.5418C43.0205 8.89407 44.4102 7.50439 46.0579 7.50439C47.7057 7.50439 49.0954 8.89407 49.0954 10.5418C49.0954 12.1896 47.7057 13.5793 46.0579 13.5793ZM46.0579 8.2985C44.8271 8.2985 43.8146 9.29112 43.8146 10.5418C43.8146 11.7925 44.8072 12.7852 46.0579 12.7852C47.3087 12.7852 48.3013 11.7925 48.3013 10.5418C48.3013 9.29112 47.3087 8.2985 46.0579 8.2985Z" fill="#EBF7FC"/>
<path d="M53.5422 13.202C54.9894 13.202 56.1627 12.0288 56.1627 10.5815C56.1627 9.13419 54.9894 7.96094 53.5422 7.96094C52.0949 7.96094 50.9216 9.13419 50.9216 10.5815C50.9216 12.0288 52.0949 13.202 53.5422 13.202Z" fill="#FF7680"/>
<path d="M53.5423 13.5793C51.8747 13.5793 50.5049 12.1896 50.5049 10.5418C50.5049 8.89407 51.8946 7.50439 53.5423 7.50439C55.1901 7.50439 56.5798 8.89407 56.5798 10.5418C56.5798 12.1896 55.1901 13.5793 53.5423 13.5793ZM53.5423 8.2985C52.3115 8.2985 51.299 9.29112 51.299 10.5418C51.299 11.7925 52.2916 12.7852 53.5423 12.7852C54.793 12.7852 55.7857 11.7925 55.7857 10.5418C55.7857 9.29112 54.793 8.2985 53.5423 8.2985Z" fill="#EBF7FC"/>
<path d="M60.967 13.202C62.4143 13.202 63.5875 12.0288 63.5875 10.5815C63.5875 9.13419 62.4143 7.96094 60.967 7.96094C59.5197 7.96094 58.3464 9.13419 58.3464 10.5815C58.3464 12.0288 59.5197 13.202 60.967 13.202Z" fill="#FF7680"/>
<path d="M60.9671 13.5793C59.2995 13.5793 57.9297 12.1896 57.9297 10.5418C57.9297 8.89407 59.3194 7.50439 60.9671 7.50439C62.6149 7.50439 64.0046 8.89407 64.0046 10.5418C64.0046 12.1896 62.6149 13.5793 60.9671 13.5793ZM60.9671 8.2985C59.7363 8.2985 58.7238 9.29112 58.7238 10.5418C58.7238 11.7925 59.7164 12.7852 60.9671 12.7852C62.2178 12.7852 63.2105 11.7925 63.2105 10.5418C63.2105 9.29112 62.2178 8.2985 60.9671 8.2985Z" fill="#EBF7FC"/>
<path d="M68.4316 13.202C69.8788 13.202 71.0521 12.0288 71.0521 10.5815C71.0521 9.13419 69.8788 7.96094 68.4316 7.96094C66.9843 7.96094 65.811 9.13419 65.811 10.5815C65.811 12.0288 66.9843 13.202 68.4316 13.202Z" fill="#FF7680"/>
<path d="M68.4317 13.5793C66.7641 13.5793 65.3943 12.1896 65.3943 10.5418C65.3943 8.89407 66.784 7.50439 68.4317 7.50439C70.0795 7.50439 71.4692 8.89407 71.4692 10.5418C71.4692 12.1896 70.0795 13.5793 68.4317 13.5793ZM68.4317 8.2985C67.2009 8.2985 66.1884 9.29112 66.1884 10.5418C66.1884 11.7925 67.181 12.7852 68.4317 12.7852C69.6824 12.7852 70.6751 11.7925 70.6751 10.5418C70.6751 9.29112 69.6824 8.2985 68.4317 8.2985Z" fill="#EBF7FC"/>
<path d="M20.2297 13.1425H19.1378V9.05291L18.4231 9.43012L17.907 8.57645L19.3761 7.62354H20.19V13.1425H20.2297Z" fill="#EBF7FC"/>
<path d="M31.1684 22.6717C32.6157 22.6717 33.7889 21.4985 33.7889 20.0512C33.7889 18.6039 32.6157 17.4307 31.1684 17.4307C29.7211 17.4307 28.5479 18.6039 28.5479 20.0512C28.5479 21.4985 29.7211 22.6717 31.1684 22.6717Z" fill="#FF7680"/>
<path d="M31.1685 23.0885C29.5009 23.0885 28.1311 21.6989 28.1311 20.0511C28.1311 18.4034 29.5208 17.0137 31.1685 17.0137C32.8163 17.0137 34.206 18.4034 34.206 20.0511C34.206 21.6989 32.8163 23.0885 31.1685 23.0885ZM31.1685 17.8078C29.9377 17.8078 28.9252 18.8004 28.9252 20.0511C28.9252 21.3018 29.9178 22.2944 31.1685 22.2944C32.4192 22.2944 33.4119 21.3018 33.4119 20.0511C33.4119 18.8004 32.4192 17.8078 31.1685 17.8078Z" fill="#EBF7FC"/>
<path d="M38.633 22.6717C40.0803 22.6717 41.2535 21.4985 41.2535 20.0512C41.2535 18.6039 40.0803 17.4307 38.633 17.4307C37.1857 17.4307 36.0125 18.6039 36.0125 20.0512C36.0125 21.4985 37.1857 22.6717 38.633 22.6717Z" fill="#FF7680"/>
<path d="M38.6329 23.0885C36.9653 23.0885 35.5955 21.6989 35.5955 20.0511C35.5955 18.4034 36.9851 17.0137 38.6329 17.0137C40.2807 17.0137 41.6703 18.4034 41.6703 20.0511C41.6703 21.6989 40.2807 23.0885 38.6329 23.0885ZM38.6329 17.8078C37.402 17.8078 36.3896 18.8004 36.3896 20.0511C36.3896 21.3018 37.3822 22.2944 38.6329 22.2944C39.8836 22.2944 40.8762 21.3018 40.8762 20.0511C40.8762 18.8004 39.8836 17.8078 38.6329 17.8078Z" fill="#EBF7FC"/>
<path d="M46.0578 22.6717C47.5051 22.6717 48.6783 21.4985 48.6783 20.0512C48.6783 18.6039 47.5051 17.4307 46.0578 17.4307C44.6105 17.4307 43.4373 18.6039 43.4373 20.0512C43.4373 21.4985 44.6105 22.6717 46.0578 22.6717Z" fill="#FF7680"/>
<path d="M46.0579 23.0885C44.3903 23.0885 43.0205 21.6989 43.0205 20.0511C43.0205 18.4034 44.4102 17.0137 46.0579 17.0137C47.7057 17.0137 49.0954 18.4034 49.0954 20.0511C49.0954 21.6989 47.7057 23.0885 46.0579 23.0885ZM46.0579 17.8078C44.8271 17.8078 43.8146 18.8004 43.8146 20.0511C43.8146 21.3018 44.8072 22.2944 46.0579 22.2944C47.3087 22.2944 48.3013 21.3018 48.3013 20.0511C48.3013 18.8004 47.3087 17.8078 46.0579 17.8078Z" fill="#EBF7FC"/>
<path d="M53.5422 22.6717C54.9894 22.6717 56.1627 21.4985 56.1627 20.0512C56.1627 18.6039 54.9894 17.4307 53.5422 17.4307C52.0949 17.4307 50.9216 18.6039 50.9216 20.0512C50.9216 21.4985 52.0949 22.6717 53.5422 22.6717Z" fill="#FF7680"/>
<path d="M53.5423 23.0885C51.8747 23.0885 50.5049 21.6989 50.5049 20.0511C50.5049 18.4034 51.8946 17.0137 53.5423 17.0137C55.1901 17.0137 56.5798 18.4034 56.5798 20.0511C56.5798 21.6989 55.1901 23.0885 53.5423 23.0885ZM53.5423 17.8078C52.3115 17.8078 51.299 18.8004 51.299 20.0511C51.299 21.3018 52.2916 22.2944 53.5423 22.2944C54.793 22.2944 55.7857 21.3018 55.7857 20.0511C55.7857 18.8004 54.793 17.8078 53.5423 17.8078Z" fill="#EBF7FC"/>
<path d="M60.967 22.6717C62.4143 22.6717 63.5875 21.4985 63.5875 20.0512C63.5875 18.6039 62.4143 17.4307 60.967 17.4307C59.5197 17.4307 58.3464 18.6039 58.3464 20.0512C58.3464 21.4985 59.5197 22.6717 60.967 22.6717Z" fill="#FF7680"/>
<path d="M60.9671 23.0885C59.2995 23.0885 57.9297 21.6989 57.9297 20.0511C57.9297 18.4034 59.3194 17.0137 60.9671 17.0137C62.6149 17.0137 64.0046 18.4034 64.0046 20.0511C64.0046 21.6989 62.6149 23.0885 60.9671 23.0885ZM60.9671 17.8078C59.7363 17.8078 58.7238 18.8004 58.7238 20.0511C58.7238 21.3018 59.7164 22.2944 60.9671 22.2944C62.2178 22.2944 63.2105 21.3018 63.2105 20.0511C63.2105 18.8004 62.2178 17.8078 60.9671 17.8078Z" fill="#EBF7FC"/>
<path d="M68.4316 22.6717C69.8788 22.6717 71.0521 21.4985 71.0521 20.0512C71.0521 18.6039 69.8788 17.4307 68.4316 17.4307C66.9843 17.4307 65.811 18.6039 65.811 20.0512C65.811 21.4985 66.9843 22.6717 68.4316 22.6717Z" fill="#FF7680"/>
<path d="M68.4317 23.0885C66.7641 23.0885 65.3943 21.6989 65.3943 20.0511C65.3943 18.4034 66.784 17.0137 68.4317 17.0137C70.0795 17.0137 71.4692 18.4034 71.4692 20.0511C71.4692 21.6989 70.0795 23.0885 68.4317 23.0885ZM68.4317 17.8078C67.2009 17.8078 66.1884 18.8004 66.1884 20.0511C66.1884 21.3018 67.181 22.2944 68.4317 22.2944C69.6824 22.2944 70.6751 21.3018 70.6751 20.0511C70.6751 18.8004 69.6824 17.8078 68.4317 17.8078Z" fill="#EBF7FC"/>
<path d="M21.7385 22.6715H18.2643V21.9568C18.2643 20.051 20.5473 19.4752 20.5473 18.7208C20.5473 17.9664 20.2098 18.1451 19.8723 18.1451C19.5348 18.1451 19.1974 18.4826 19.0584 18.8201L18.1055 18.2444C18.4827 17.5297 18.9591 17.0532 19.8128 17.0532C20.6664 17.0532 21.5797 17.6289 21.5797 18.7208C21.5797 19.8127 19.7334 20.4877 19.4356 21.5796H21.6789V22.6318L21.7186 22.6715H21.7385Z" fill="#EBF7FC"/>
<path d="M31.1684 32.181C32.6157 32.181 33.7889 31.0078 33.7889 29.5605C33.7889 28.1132 32.6157 26.9399 31.1684 26.9399C29.7211 26.9399 28.5479 28.1132 28.5479 29.5605C28.5479 31.0078 29.7211 32.181 31.1684 32.181Z" fill="#FF7680"/>
<path d="M31.1685 32.5583C29.5009 32.5583 28.1311 31.1686 28.1311 29.5208C28.1311 27.8731 29.5208 26.4834 31.1685 26.4834C32.8163 26.4834 34.206 27.8731 34.206 29.5208C34.206 31.1686 32.8163 32.5583 31.1685 32.5583ZM31.1685 27.2775C29.9377 27.2775 28.9252 28.2701 28.9252 29.5208C28.9252 30.7715 29.9178 31.7642 31.1685 31.7642C32.4192 31.7642 33.4119 30.7715 33.4119 29.5208C33.4119 28.2701 32.4192 27.2775 31.1685 27.2775Z" fill="#EBF7FC"/>
<path d="M38.633 32.181C40.0803 32.181 41.2535 31.0078 41.2535 29.5605C41.2535 28.1132 40.0803 26.9399 38.633 26.9399C37.1857 26.9399 36.0125 28.1132 36.0125 29.5605C36.0125 31.0078 37.1857 32.181 38.633 32.181Z" fill="#FF7680"/>
<path d="M38.6329 32.5583C36.9653 32.5583 35.5955 31.1686 35.5955 29.5208C35.5955 27.8731 36.9851 26.4834 38.6329 26.4834C40.2807 26.4834 41.6703 27.8731 41.6703 29.5208C41.6703 31.1686 40.2807 32.5583 38.6329 32.5583ZM38.6329 27.2775C37.402 27.2775 36.3896 28.2701 36.3896 29.5208C36.3896 30.7715 37.3822 31.7642 38.6329 31.7642C39.8836 31.7642 40.8762 30.7715 40.8762 29.5208C40.8762 28.2701 39.8836 27.2775 38.6329 27.2775Z" fill="#EBF7FC"/>
<path d="M46.0578 32.181C47.5051 32.181 48.6783 31.0078 48.6783 29.5605C48.6783 28.1132 47.5051 26.9399 46.0578 26.9399C44.6105 26.9399 43.4373 28.1132 43.4373 29.5605C43.4373 31.0078 44.6105 32.181 46.0578 32.181Z" fill="#FF7680"/>
<path d="M46.0579 32.5583C44.3903 32.5583 43.0205 31.1686 43.0205 29.5208C43.0205 27.8731 44.4102 26.4834 46.0579 26.4834C47.7057 26.4834 49.0954 27.8731 49.0954 29.5208C49.0954 31.1686 47.7057 32.5583 46.0579 32.5583ZM46.0579 27.2775C44.8271 27.2775 43.8146 28.2701 43.8146 29.5208C43.8146 30.7715 44.8072 31.7642 46.0579 31.7642C47.3087 31.7642 48.3013 30.7715 48.3013 29.5208C48.3013 28.2701 47.3087 27.2775 46.0579 27.2775Z" fill="#EBF7FC"/>
<path d="M53.5422 32.181C54.9894 32.181 56.1627 31.0078 56.1627 29.5605C56.1627 28.1132 54.9894 26.9399 53.5422 26.9399C52.0949 26.9399 50.9216 28.1132 50.9216 29.5605C50.9216 31.0078 52.0949 32.181 53.5422 32.181Z" fill="#FF7680"/>
<path d="M53.5423 32.5583C51.8747 32.5583 50.5049 31.1686 50.5049 29.5208C50.5049 27.8731 51.8946 26.4834 53.5423 26.4834C55.1901 26.4834 56.5798 27.8731 56.5798 29.5208C56.5798 31.1686 55.1901 32.5583 53.5423 32.5583ZM53.5423 27.2775C52.3115 27.2775 51.299 28.2701 51.299 29.5208C51.299 30.7715 52.2916 31.7642 53.5423 31.7642C54.793 31.7642 55.7857 30.7715 55.7857 29.5208C55.7857 28.2701 54.793 27.2775 53.5423 27.2775Z" fill="#EBF7FC"/>
<path d="M60.967 32.181C62.4143 32.181 63.5875 31.0078 63.5875 29.5605C63.5875 28.1132 62.4143 26.9399 60.967 26.9399C59.5197 26.9399 58.3464 28.1132 58.3464 29.5605C58.3464 31.0078 59.5197 32.181 60.967 32.181Z" fill="#FF7680"/>
<path d="M60.9671 32.5583C59.2995 32.5583 57.9297 31.1686 57.9297 29.5208C57.9297 27.8731 59.3194 26.4834 60.9671 26.4834C62.6149 26.4834 64.0046 27.8731 64.0046 29.5208C64.0046 31.1686 62.6149 32.5583 60.9671 32.5583ZM60.9671 27.2775C59.7363 27.2775 58.7238 28.2701 58.7238 29.5208C58.7238 30.7715 59.7164 31.7642 60.9671 31.7642C62.2178 31.7642 63.2105 30.7715 63.2105 29.5208C63.2105 28.2701 62.2178 27.2775 60.9671 27.2775Z" fill="#EBF7FC"/>
<path d="M68.4316 32.181C69.8788 32.181 71.0521 31.0078 71.0521 29.5605C71.0521 28.1132 69.8788 26.9399 68.4316 26.9399C66.9843 26.9399 65.811 28.1132 65.811 29.5605C65.811 31.0078 66.9843 32.181 68.4316 32.181Z" fill="#FF7680"/>
<path d="M68.4317 32.5583C66.7641 32.5583 65.3943 31.1686 65.3943 29.5208C65.3943 27.8731 66.784 26.4834 68.4317 26.4834C70.0795 26.4834 71.4692 27.8731 71.4692 29.5208C71.4692 31.1686 70.0795 32.5583 68.4317 32.5583ZM68.4317 27.2775C67.2009 27.2775 66.1884 28.2701 66.1884 29.5208C66.1884 30.7715 67.181 31.7642 68.4317 31.7642C69.6824 31.7642 70.6751 30.7715 70.6751 29.5208C70.6751 28.2701 69.6824 27.2775 68.4317 27.2775Z" fill="#EBF7FC"/>
<path d="M19.9318 32.2205C19.0186 32.2205 18.4032 31.7837 18.1252 30.9301L19.1179 30.4933C19.2171 30.8705 19.4951 31.1087 19.9318 31.1087C20.3686 31.1087 20.6465 30.8308 20.6465 30.4338C20.6465 29.8183 20.1303 29.7191 19.5943 29.7191V28.8654C20.0311 28.8654 20.5075 28.8257 20.5075 28.25C20.5075 27.6743 20.17 27.6743 19.8326 27.6743C19.4951 27.6743 19.2568 27.9125 19.1179 28.25L18.1252 27.8132C18.4627 26.9993 18.9789 26.6221 19.8326 26.6221C20.6862 26.6221 21.5399 27.2971 21.5399 28.2897C21.5399 29.2823 21.3414 29.0441 21.0634 29.3419C21.4009 29.5801 21.6788 30.0566 21.6788 30.533C21.6788 31.5852 20.9244 32.2999 19.8723 32.2999V32.2006H19.912L19.9318 32.2205Z" fill="#EBF7FC"/>
<path d="M31.1684 41.6507C32.6157 41.6507 33.7889 40.4775 33.7889 39.0302C33.7889 37.5829 32.6157 36.4097 31.1684 36.4097C29.7211 36.4097 28.5479 37.5829 28.5479 39.0302C28.5479 40.4775 29.7211 41.6507 31.1684 41.6507Z" fill="#FF7680"/>
<path d="M31.1685 42.0876C29.5009 42.0876 28.1311 40.6979 28.1311 39.0501C28.1311 37.4024 29.5208 36.0127 31.1685 36.0127C32.8163 36.0127 34.206 37.4024 34.206 39.0501C34.206 40.6979 32.8163 42.0876 31.1685 42.0876ZM31.1685 36.8068C29.9377 36.8068 28.9252 37.7994 28.9252 39.0501C28.9252 40.3008 29.9178 41.2935 31.1685 41.2935C32.4192 41.2935 33.4119 40.3008 33.4119 39.0501C33.4119 37.7994 32.4192 36.8068 31.1685 36.8068Z" fill="#EBF7FC"/>
<path d="M38.633 41.6507C40.0803 41.6507 41.2535 40.4775 41.2535 39.0302C41.2535 37.5829 40.0803 36.4097 38.633 36.4097C37.1857 36.4097 36.0125 37.5829 36.0125 39.0302C36.0125 40.4775 37.1857 41.6507 38.633 41.6507Z" fill="#FF7680"/>
<path d="M38.6329 42.0876C36.9653 42.0876 35.5955 40.6979 35.5955 39.0501C35.5955 37.4024 36.9851 36.0127 38.6329 36.0127C40.2807 36.0127 41.6703 37.4024 41.6703 39.0501C41.6703 40.6979 40.2807 42.0876 38.6329 42.0876ZM38.6329 36.8068C37.402 36.8068 36.3896 37.7994 36.3896 39.0501C36.3896 40.3008 37.3822 41.2935 38.6329 41.2935C39.8836 41.2935 40.8762 40.3008 40.8762 39.0501C40.8762 37.7994 39.8836 36.8068 38.6329 36.8068Z" fill="#EBF7FC"/>
<path d="M46.0578 41.6507C47.5051 41.6507 48.6783 40.4775 48.6783 39.0302C48.6783 37.5829 47.5051 36.4097 46.0578 36.4097C44.6105 36.4097 43.4373 37.5829 43.4373 39.0302C43.4373 40.4775 44.6105 41.6507 46.0578 41.6507Z" fill="#FF7680"/>
<path d="M46.0579 42.0876C44.3903 42.0876 43.0205 40.6979 43.0205 39.0501C43.0205 37.4024 44.4102 36.0127 46.0579 36.0127C47.7057 36.0127 49.0954 37.4024 49.0954 39.0501C49.0954 40.6979 47.7057 42.0876 46.0579 42.0876ZM46.0579 36.8068C44.8271 36.8068 43.8146 37.7994 43.8146 39.0501C43.8146 40.3008 44.8072 41.2935 46.0579 41.2935C47.3087 41.2935 48.3013 40.3008 48.3013 39.0501C48.3013 37.7994 47.3087 36.8068 46.0579 36.8068Z" fill="#EBF7FC"/>
<path d="M53.5422 41.6507C54.9894 41.6507 56.1627 40.4775 56.1627 39.0302C56.1627 37.5829 54.9894 36.4097 53.5422 36.4097C52.0949 36.4097 50.9216 37.5829 50.9216 39.0302C50.9216 40.4775 52.0949 41.6507 53.5422 41.6507Z" fill="#FF7680"/>
<path d="M53.5423 42.0876C51.8747 42.0876 50.5049 40.6979 50.5049 39.0501C50.5049 37.4024 51.8946 36.0127 53.5423 36.0127C55.1901 36.0127 56.5798 37.4024 56.5798 39.0501C56.5798 40.6979 55.1901 42.0876 53.5423 42.0876ZM53.5423 36.8068C52.3115 36.8068 51.299 37.7994 51.299 39.0501C51.299 40.3008 52.2916 41.2935 53.5423 41.2935C54.793 41.2935 55.7857 40.3008 55.7857 39.0501C55.7857 37.7994 54.793 36.8068 53.5423 36.8068Z" fill="#EBF7FC"/>
<path d="M60.967 41.6507C62.4143 41.6507 63.5875 40.4775 63.5875 39.0302C63.5875 37.5829 62.4143 36.4097 60.967 36.4097C59.5197 36.4097 58.3464 37.5829 58.3464 39.0302C58.3464 40.4775 59.5197 41.6507 60.967 41.6507Z" fill="#FF7680"/>
<path d="M60.9671 42.0876C59.2995 42.0876 57.9297 40.6979 57.9297 39.0501C57.9297 37.4024 59.3194 36.0127 60.9671 36.0127C62.6149 36.0127 64.0046 37.4024 64.0046 39.0501C64.0046 40.6979 62.6149 42.0876 60.9671 42.0876ZM60.9671 36.8068C59.7363 36.8068 58.7238 37.7994 58.7238 39.0501C58.7238 40.3008 59.7164 41.2935 60.9671 41.2935C62.2178 41.2935 63.2105 40.3008 63.2105 39.0501C63.2105 37.7994 62.2178 36.8068 60.9671 36.8068Z" fill="#EBF7FC"/>
<path d="M68.4316 41.6507C69.8788 41.6507 71.0521 40.4775 71.0521 39.0302C71.0521 37.5829 69.8788 36.4097 68.4316 36.4097C66.9843 36.4097 65.811 37.5829 65.811 39.0302C65.811 40.4775 66.9843 41.6507 68.4316 41.6507Z" fill="#FF7680"/>
<path d="M68.4317 42.0876C66.7641 42.0876 65.3943 40.6979 65.3943 39.0501C65.3943 37.4024 66.784 36.0127 68.4317 36.0127C70.0795 36.0127 71.4692 37.4024 71.4692 39.0501C71.4692 40.6979 70.0795 42.0876 68.4317 42.0876ZM68.4317 36.8068C67.2009 36.8068 66.1884 37.7994 66.1884 39.0501C66.1884 40.3008 67.181 41.2935 68.4317 41.2935C69.6824 41.2935 70.6751 40.3008 70.6751 39.0501C70.6751 37.7994 69.6824 36.8068 68.4317 36.8068Z" fill="#EBF7FC"/>
<path d="M21.8377 40.4595H21.4605V41.6507H20.4083V40.4595H17.9863V39.5463L20.0708 36.1118H21.262L19.2569 39.3875H20.4083V37.9978L21.4605 38.1368V39.4272H21.8377V40.4794V40.4397V40.4595Z" fill="#EBF7FC"/>
<path d="M31.1684 51.18C32.6157 51.18 33.7889 50.0068 33.7889 48.5595C33.7889 47.1122 32.6157 45.939 31.1684 45.939C29.7211 45.939 28.5479 47.1122 28.5479 48.5595C28.5479 50.0068 29.7211 51.18 31.1684 51.18Z" fill="#FF7680"/>
<path d="M31.1685 51.5968C29.5009 51.5968 28.1311 50.2072 28.1311 48.5594C28.1311 46.9116 29.5208 45.522 31.1685 45.522C32.8163 45.522 34.206 46.9116 34.206 48.5594C34.206 50.2072 32.8163 51.5968 31.1685 51.5968ZM31.1685 46.3161C29.9377 46.3161 28.9252 47.3087 28.9252 48.5594C28.9252 49.8101 29.9178 50.8027 31.1685 50.8027C32.4192 50.8027 33.4119 49.8101 33.4119 48.5594C33.4119 47.3087 32.4192 46.3161 31.1685 46.3161Z" fill="#EBF7FC"/>
<path d="M38.633 51.18C40.0803 51.18 41.2535 50.0068 41.2535 48.5595C41.2535 47.1122 40.0803 45.939 38.633 45.939C37.1857 45.939 36.0125 47.1122 36.0125 48.5595C36.0125 50.0068 37.1857 51.18 38.633 51.18Z" fill="#FF7680"/>
<path d="M38.6329 51.5968C36.9653 51.5968 35.5955 50.2072 35.5955 48.5594C35.5955 46.9116 36.9851 45.522 38.6329 45.522C40.2807 45.522 41.6703 46.9116 41.6703 48.5594C41.6703 50.2072 40.2807 51.5968 38.6329 51.5968ZM38.6329 46.3161C37.402 46.3161 36.3896 47.3087 36.3896 48.5594C36.3896 49.8101 37.3822 50.8027 38.6329 50.8027C39.8836 50.8027 40.8762 49.8101 40.8762 48.5594C40.8762 47.3087 39.8836 46.3161 38.6329 46.3161Z" fill="#EBF7FC"/>
<path d="M46.0578 51.18C47.5051 51.18 48.6783 50.0068 48.6783 48.5595C48.6783 47.1122 47.5051 45.939 46.0578 45.939C44.6105 45.939 43.4373 47.1122 43.4373 48.5595C43.4373 50.0068 44.6105 51.18 46.0578 51.18Z" fill="#FF7680"/>
<path d="M46.0579 51.5968C44.3903 51.5968 43.0205 50.2072 43.0205 48.5594C43.0205 46.9116 44.4102 45.522 46.0579 45.522C47.7057 45.522 49.0954 46.9116 49.0954 48.5594C49.0954 50.2072 47.7057 51.5968 46.0579 51.5968ZM46.0579 46.3161C44.8271 46.3161 43.8146 47.3087 43.8146 48.5594C43.8146 49.8101 44.8072 50.8027 46.0579 50.8027C47.3087 50.8027 48.3013 49.8101 48.3013 48.5594C48.3013 47.3087 47.3087 46.3161 46.0579 46.3161Z" fill="#EBF7FC"/>
<path d="M53.5422 51.18C54.9894 51.18 56.1627 50.0068 56.1627 48.5595C56.1627 47.1122 54.9894 45.939 53.5422 45.939C52.0949 45.939 50.9216 47.1122 50.9216 48.5595C50.9216 50.0068 52.0949 51.18 53.5422 51.18Z" fill="#FF7680"/>
<path d="M53.5423 51.5968C51.8747 51.5968 50.5049 50.2072 50.5049 48.5594C50.5049 46.9116 51.8946 45.522 53.5423 45.522C55.1901 45.522 56.5798 46.9116 56.5798 48.5594C56.5798 50.2072 55.1901 51.5968 53.5423 51.5968ZM53.5423 46.3161C52.3115 46.3161 51.299 47.3087 51.299 48.5594C51.299 49.8101 52.2916 50.8027 53.5423 50.8027C54.793 50.8027 55.7857 49.8101 55.7857 48.5594C55.7857 47.3087 54.793 46.3161 53.5423 46.3161Z" fill="#EBF7FC"/>
<path d="M60.967 51.18C62.4143 51.18 63.5875 50.0068 63.5875 48.5595C63.5875 47.1122 62.4143 45.939 60.967 45.939C59.5197 45.939 58.3464 47.1122 58.3464 48.5595C58.3464 50.0068 59.5197 51.18 60.967 51.18Z" fill="#FF7680"/>
<path d="M60.9671 51.5968C59.2995 51.5968 57.9297 50.2072 57.9297 48.5594C57.9297 46.9116 59.3194 45.522 60.9671 45.522C62.6149 45.522 64.0046 46.9116 64.0046 48.5594C64.0046 50.2072 62.6149 51.5968 60.9671 51.5968ZM60.9671 46.3161C59.7363 46.3161 58.7238 47.3087 58.7238 48.5594C58.7238 49.8101 59.7164 50.8027 60.9671 50.8027C62.2178 50.8027 63.2105 49.8101 63.2105 48.5594C63.2105 47.3087 62.2178 46.3161 60.9671 46.3161Z" fill="#EBF7FC"/>
<path d="M68.4316 51.18C69.8788 51.18 71.0521 50.0068 71.0521 48.5595C71.0521 47.1122 69.8788 45.939 68.4316 45.939C66.9843 45.939 65.811 47.1122 65.811 48.5595C65.811 50.0068 66.9843 51.18 68.4316 51.18Z" fill="#FF7680"/>
<path d="M68.4317 51.5968C66.7641 51.5968 65.3943 50.2072 65.3943 48.5594C65.3943 46.9116 66.784 45.522 68.4317 45.522C70.0795 45.522 71.4692 46.9116 71.4692 48.5594C71.4692 50.2072 70.0795 51.5968 68.4317 51.5968ZM68.4317 46.3161C67.2009 46.3161 66.1884 47.3087 66.1884 48.5594C66.1884 49.8101 67.181 50.8027 68.4317 50.8027C69.6824 50.8027 70.6751 49.8101 70.6751 48.5594C70.6751 47.3087 69.6824 46.3161 68.4317 46.3161Z" fill="#EBF7FC"/>
<path d="M19.9318 51.1796C18.9789 51.1796 18.4032 50.6039 18.1252 49.7503L19.1774 49.4128C19.2767 49.79 19.5149 50.1275 19.9318 50.1275C20.3487 50.1275 20.6862 49.6907 20.6862 49.2142C20.6862 48.7378 20.448 48.3606 19.9318 48.3606C19.4157 48.3606 19.4554 48.4598 19.2171 48.6981H18.2642V45.6606H21.4009V46.7128H19.2568V47.5268C19.4554 47.3878 19.6936 47.3282 19.9318 47.3282C21.0833 47.3282 21.7384 48.1422 21.7384 49.1745C21.7384 50.2069 21.0634 51.1796 19.8921 51.1796H19.9318Z" fill="#EBF7FC"/>
<path d="M31.1684 60.6493C32.6157 60.6493 33.7889 59.476 33.7889 58.0287C33.7889 56.5815 32.6157 55.4082 31.1684 55.4082C29.7211 55.4082 28.5479 56.5815 28.5479 58.0287C28.5479 59.476 29.7211 60.6493 31.1684 60.6493Z" fill="#FF7680"/>
<path d="M31.1685 61.0666C29.5009 61.0666 28.1311 59.6769 28.1311 58.0291C28.1311 56.3814 29.5208 54.9917 31.1685 54.9917C32.8163 54.9917 34.206 56.3814 34.206 58.0291C34.206 59.6769 32.8163 61.0666 31.1685 61.0666ZM31.1685 55.7858C29.9377 55.7858 28.9252 56.7784 28.9252 58.0291C28.9252 59.2798 29.9178 60.2725 31.1685 60.2725C32.4192 60.2725 33.4119 59.2798 33.4119 58.0291C33.4119 56.7784 32.4192 55.7858 31.1685 55.7858Z" fill="#EBF7FC"/>
<path d="M38.633 60.6493C40.0803 60.6493 41.2535 59.476 41.2535 58.0287C41.2535 56.5815 40.0803 55.4082 38.633 55.4082C37.1857 55.4082 36.0125 56.5815 36.0125 58.0287C36.0125 59.476 37.1857 60.6493 38.633 60.6493Z" fill="#FF7680"/>
<path d="M38.6331 61.0666C36.9655 61.0666 35.5957 59.6769 35.5957 58.0291C35.5957 56.3814 36.9854 54.9917 38.6331 54.9917C40.2809 54.9917 41.6706 56.3814 41.6706 58.0291C41.6706 59.6769 40.2809 61.0666 38.6331 61.0666ZM38.6331 55.7858C37.4023 55.7858 36.3898 56.7784 36.3898 58.0291C36.3898 59.2798 37.3824 60.2725 38.6331 60.2725C39.8838 60.2725 40.8765 59.2798 40.8765 58.0291C40.8765 56.7784 39.8838 55.7858 38.6331 55.7858Z" fill="#EBF7FC"/>
<path d="M46.0578 60.6493C47.5051 60.6493 48.6783 59.476 48.6783 58.0287C48.6783 56.5815 47.5051 55.4082 46.0578 55.4082C44.6105 55.4082 43.4373 56.5815 43.4373 58.0287C43.4373 59.476 44.6105 60.6493 46.0578 60.6493Z" fill="#FF7680"/>
<path d="M46.0579 61.0666C44.3903 61.0666 43.0205 59.6769 43.0205 58.0291C43.0205 56.3814 44.4102 54.9917 46.0579 54.9917C47.7057 54.9917 49.0954 56.3814 49.0954 58.0291C49.0954 59.6769 47.7057 61.0666 46.0579 61.0666ZM46.0579 55.7858C44.8271 55.7858 43.8146 56.7784 43.8146 58.0291C43.8146 59.2798 44.8072 60.2725 46.0579 60.2725C47.3087 60.2725 48.3013 59.2798 48.3013 58.0291C48.3013 56.7784 47.3087 55.7858 46.0579 55.7858Z" fill="#EBF7FC"/>
<path d="M53.5422 60.6493C54.9894 60.6493 56.1627 59.476 56.1627 58.0287C56.1627 56.5815 54.9894 55.4082 53.5422 55.4082C52.0949 55.4082 50.9216 56.5815 50.9216 58.0287C50.9216 59.476 52.0949 60.6493 53.5422 60.6493Z" fill="#FF7680"/>
<path d="M53.5423 61.0666C51.8747 61.0666 50.5049 59.6769 50.5049 58.0291C50.5049 56.3814 51.8946 54.9917 53.5423 54.9917C55.1901 54.9917 56.5798 56.3814 56.5798 58.0291C56.5798 59.6769 55.1901 61.0666 53.5423 61.0666ZM53.5423 55.7858C52.3115 55.7858 51.299 56.7784 51.299 58.0291C51.299 59.2798 52.2916 60.2725 53.5423 60.2725C54.793 60.2725 55.7857 59.2798 55.7857 58.0291C55.7857 56.7784 54.793 55.7858 53.5423 55.7858Z" fill="#EBF7FC"/>
<path d="M60.9672 60.6493C62.4145 60.6493 63.5878 59.476 63.5878 58.0287C63.5878 56.5815 62.4145 55.4082 60.9672 55.4082C59.5199 55.4082 58.3467 56.5815 58.3467 58.0287C58.3467 59.476 59.5199 60.6493 60.9672 60.6493Z" fill="#FF7680"/>
<path d="M60.9671 61.0666C59.2995 61.0666 57.9297 59.6769 57.9297 58.0291C57.9297 56.3814 59.3194 54.9917 60.9671 54.9917C62.6149 54.9917 64.0046 56.3814 64.0046 58.0291C64.0046 59.6769 62.6149 61.0666 60.9671 61.0666ZM60.9671 55.7858C59.7363 55.7858 58.7238 56.7784 58.7238 58.0291C58.7238 59.2798 59.7164 60.2725 60.9671 60.2725C62.2178 60.2725 63.2105 59.2798 63.2105 58.0291C63.2105 56.7784 62.2178 55.7858 60.9671 55.7858Z" fill="#EBF7FC"/>
<path d="M68.4316 60.6493C69.8788 60.6493 71.0521 59.476 71.0521 58.0287C71.0521 56.5815 69.8788 55.4082 68.4316 55.4082C66.9843 55.4082 65.811 56.5815 65.811 58.0287C65.811 59.476 66.9843 60.6493 68.4316 60.6493Z" fill="#FF7680"/>
<path d="M68.4317 61.0666C66.7641 61.0666 65.3943 59.6769 65.3943 58.0291C65.3943 56.3814 66.784 54.9917 68.4317 54.9917C70.0795 54.9917 71.4692 56.3814 71.4692 58.0291C71.4692 59.6769 70.0795 61.0666 68.4317 61.0666ZM68.4317 55.7858C67.2009 55.7858 66.1884 56.7784 66.1884 58.0291C66.1884 59.2798 67.181 60.2725 68.4317 60.2725C69.6824 60.2725 70.6751 59.2798 70.6751 58.0291C70.6751 56.7784 69.6824 55.7858 68.4317 55.7858Z" fill="#EBF7FC"/>
<path d="M19.9916 60.6891C18.8004 60.6891 18.1453 59.6965 18.1453 58.6046C18.1453 57.5127 18.6614 55.984 19.8129 55.1304H21.143C20.4283 55.7061 19.7533 56.2818 19.4357 57.1752C19.6342 57.0362 19.8129 56.9767 20.0511 56.9767C21.1033 56.9767 21.7584 57.7906 21.7584 58.8229C21.7584 59.8553 21.0834 60.6692 19.9518 60.6692H19.9916V60.6891ZM19.9916 58.0288C19.5548 58.0288 19.3166 58.406 19.3166 58.8428C19.3166 59.2795 19.5945 59.5972 20.0313 59.5972C20.468 59.5972 20.7459 59.22 20.7459 58.8428C20.7459 58.4656 20.468 58.0884 20.0313 58.0884H19.9916V58.0487V58.0288Z" fill="#EBF7FC"/>
<path d="M38.5735 12.9638C39.8892 12.9638 40.9558 11.8972 40.9558 10.5815C40.9558 9.26581 39.8892 8.19922 38.5735 8.19922C37.2578 8.19922 36.1912 9.26581 36.1912 10.5815C36.1912 11.8972 37.2578 12.9638 38.5735 12.9638Z" fill="#565C5E"/>
<path d="M53.6416 22.4336C54.9573 22.4336 56.0239 21.367 56.0239 20.0512C56.0239 18.7355 54.9573 17.6689 53.6416 17.6689C52.3259 17.6689 51.2593 18.7355 51.2593 20.0512C51.2593 21.367 52.3259 22.4336 53.6416 22.4336Z" fill="#565C5E"/>
<path d="M53.6416 32.0024C54.9573 32.0024 56.0239 30.9358 56.0239 29.6201C56.0239 28.3044 54.9573 27.2378 53.6416 27.2378C52.3259 27.2378 51.2593 28.3044 51.2593 29.6201C51.2593 30.9358 52.3259 32.0024 53.6416 32.0024Z" fill="#565C5E"/>
<path d="M46.0381 41.5117C47.3538 41.5117 48.4204 40.4451 48.4204 39.1294C48.4204 37.8137 47.3538 36.7471 46.0381 36.7471C44.7224 36.7471 43.6558 37.8137 43.6558 39.1294C43.6558 40.4451 44.7224 41.5117 46.0381 41.5117Z" fill="#565C5E"/>
<path d="M68.4912 51.0605C69.8069 51.0605 70.8735 49.9939 70.8735 48.6782C70.8735 47.3625 69.8069 46.2959 68.4912 46.2959C67.1755 46.2959 66.1089 47.3625 66.1089 48.6782C66.1089 49.9939 67.1755 51.0605 68.4912 51.0605Z" fill="#565C5E"/>
<path d="M31.2876 60.4511C32.6033 60.4511 33.6699 59.3845 33.6699 58.0688C33.6699 56.7531 32.6033 55.6865 31.2876 55.6865C29.9719 55.6865 28.9053 56.7531 28.9053 58.0688C28.9053 59.3845 29.9719 60.4511 31.2876 60.4511Z" fill="#565C5E"/>
</svg>
