<svg width="25" height="25" viewBox="0 0 25 25" fill="none" xmlns="http://www.w3.org/2000/svg">
    <g clip-path="url(#clip0_1452_2966)">
        <path d="M5.68146 2.15909H19.3178C19.6316 2.15909 19.886 2.41347 19.886 2.72727V8.29545H5.11328V2.72727C5.11328 2.41347 5.36767 2.15909 5.68146 2.15909Z" stroke="#4A5568" stroke-width="1.5"/>
        <path d="M5.22745 14.4318H4.65927V15V17.7273C4.65927 18.0411 4.40488 18.2954 4.09109 18.2954H1.13654C0.822743 18.2954 0.568359 18.0411 0.568359 17.7273V8.86362C0.568359 8.54983 0.822743 8.29544 1.13654 8.29544H23.8638C24.1777 8.29544 24.432 8.54983 24.432 8.86362V17.7273C24.432 18.0411 24.1777 18.2954 23.8638 18.2954H20.9093C20.5955 18.2954 20.3411 18.0411 20.3411 17.7273V15V14.4318H19.7729H5.22745Z" stroke="#4A5568" stroke-width="1.5"/>
        <path d="M22.5009 11.1364C23.003 11.1364 23.41 10.7293 23.41 10.2273C23.41 9.72519 23.003 9.31818 22.5009 9.31818C21.9988 9.31818 21.5918 9.72519 21.5918 10.2273C21.5918 10.7293 21.9988 11.1364 22.5009 11.1364Z" fill="#4A5568"/>
        <path d="M19.886 14.4318H5.11328V22.8409H19.886V14.4318Z" stroke="#4A5568" stroke-width="1.5"/>
        <path d="M17.7267 17.0455H7.27219C7.14668 17.0455 7.04492 17.1472 7.04492 17.2727C7.04492 17.3983 7.14668 17.5 7.27219 17.5H17.7267C17.8523 17.5 17.954 17.3983 17.954 17.2727C17.954 17.1472 17.8523 17.0455 17.7267 17.0455Z" stroke="#4A5568" stroke-width="0.5"/>
        <path d="M17.7267 20.6818H7.27219C7.14668 20.6818 7.04492 20.7836 7.04492 20.9091C7.04492 21.0346 7.14668 21.1364 7.27219 21.1364H17.7267C17.8523 21.1364 17.954 21.0346 17.954 20.9091C17.954 20.7836 17.8523 20.6818 17.7267 20.6818Z" stroke="#4A5568" stroke-width="0.5"/>
        <path d="M14.9995 18.8636H7.27219C7.14668 18.8636 7.04492 18.9654 7.04492 19.0909C7.04492 19.2164 7.14668 19.3182 7.27219 19.3182H14.9995C15.125 19.3182 15.2267 19.2164 15.2267 19.0909C15.2267 18.9654 15.125 18.8636 14.9995 18.8636Z" stroke="#4A5568" stroke-width="0.5"/>
    </g>
    <defs>
        <clipPath id="clip0_1452_2966">
            <rect width="25" height="25" fill="white"/>
        </clipPath>
    </defs>
</svg>
