<svg xmlns="http://www.w3.org/2000/svg" width="100" height="100" fill="none" viewBox="0 0 105 105"><g clip-path="url(#a)"><path fill="#000" fill-opacity=".04" d="M20.254 21.65C25.034 8.958 34.426 6.64 39.668 6.645c15.144.003 20.992 4.952 30.72 16.085 9.123 10.441 15.633 8.867 20.872 12.874 8.54 6.537 13.393 29.103-3.152 42.902-23.454 19.567-38.521 20.755-58.79 14.438C15.647 88.683 4.191 77.04 3.915 64.15c-.533-24.906 11.17-28.77 16.338-42.5"/><mask id="b" fill="#fff"><path fill-rule="evenodd" d="M89.32 39.561H56.472a.6.6 0 0 0-.549.352l-8.879 11.584-8.879-11.583a.6.6 0 0 0-.549-.353H9.635c-.43 0-.72.43-.55.816l8.675 11.12h-.025v32.89a1 1 0 0 0 1 1H81.06a1 1 0 0 0 1-1v-32.89h-.183l8.674-11.12a.586.586 0 0 0-.549-.816z" clip-rule="evenodd"/></mask><path fill="#FFE600" fill-rule="evenodd" d="M89.32 39.561H56.472a.6.6 0 0 0-.549.352l-8.879 11.584-8.879-11.583a.6.6 0 0 0-.549-.353H9.635c-.43 0-.72.43-.55.816l8.675 11.12h-.025v32.89a1 1 0 0 0 1 1H81.06a1 1 0 0 0 1-1v-32.89h-.183l8.674-11.12a.586.586 0 0 0-.549-.816z" clip-rule="evenodd"/><path fill="#fff" d="m55.922 39.914 2.743 1.215a3 3 0 0 1-.362.61zm-8.879 11.583 2.381 1.825a3 3 0 0 1-4.762 0zm-8.879-11.583-2.38 1.825a3 3 0 0 1-.363-.61zm-29.078.463L6.72 42.223a3 3 0 0 1-.378-.632zm8.674 11.12 2.365-1.845a3 3 0 0 1-2.365 4.845zm-.025 0h-3a3 3 0 0 1 3-3zm64.326 0v-3a3 3 0 0 1 3 3zm-.183 0v3a3 3 0 0 1-2.366-4.845zm8.674-11.12 2.744 1.214q-.15.339-.379.632zm-34.081-3.816h32.85v6H56.47zm-3.292 2.137a3.6 3.6 0 0 1 3.292-2.137v6a2.4 2.4 0 0 0 2.194-1.432zm-8.517 10.974 8.88-11.583 4.761 3.65-8.879 11.583zm-4.117-11.583 8.88 11.583-4.763 3.65-8.879-11.583zm-2.93-1.528a3.6 3.6 0 0 1 3.292 2.137L35.42 41.13a2.4 2.4 0 0 0 2.194 1.432zm-27.298 0h27.298v6H10.317zm-.682 0h.682v6h-.682zm-3.293 5.03c-1.09-2.468.802-5.03 3.293-5.03v6c1.63 0 2.944-1.701 2.194-3.397zm9.053 11.751L6.72 42.222l4.731-3.69 8.674 11.12zm2.34-4.845h.025v6h-.025zm-3 35.89v-32.89h6v32.89zm4 4a4 4 0 0 1-4-4h6a2 2 0 0 0-2-2zm24.892 0H18.735v-6h24.892zm3.416 0h-3.416v-6h3.416zm34.018 0H47.043v-6h34.018zm4-4a4 4 0 0 1-4 4v-6a2 2 0 0 0-2 2zm0-15.267v15.267h-6V69.12zm0-15.605V69.12h-6V53.515zm0-2.018v2.018h-6v-2.018zm-3.183-3h.183v6h-.183zm11.04-6.274-8.675 11.12-4.73-3.691 8.674-11.12zm-2.915-5.662c2.49 0 4.384 2.563 3.293 5.03l-5.488-2.427c-.75 1.696.565 3.397 2.195 3.397zm-.682 0h.682v6h-.682z" mask="url(#b)"/><path stroke="#333" stroke-width="1.5" d="M89.32 39.561H56.47a.6.6 0 0 0-.548.353l-8.88 11.583h34.836l8.674-11.12a.586.586 0 0 0-.549-.816z" clip-rule="evenodd"/><path stroke="#333" stroke-width="1.5" d="M17.76 39.561h2.74m-2.74 0h2.74m-2.74 0H15.5m2.26 0H15.5m5 0h17.115a.6.6 0 0 1 .549.353l8.879 11.583H17.76L14.642 47.5l-2.34-3-3.216-4.123a.586.586 0 0 1 .548-.816H15.5"/><path fill="#fff" stroke="#fff" stroke-width="3" d="M67.59 76.482h8.7v-4.729h-8.7z"/><path stroke="#333" stroke-width="1.5" d="M66.09 77.982h11.7v-7.729h-11.7z"/><path fill="#EEE" d="M0 0h64.057v2.771H0z" style="mix-blend-mode:multiply" transform="matrix(-1 0 0 1 82.061 82.616)"/><path stroke="#333" stroke-width="1.5" d="M82.061 80v4.387a1 1 0 0 1-1 1H47.043v-33.89h35.018V69m0 7v-3"/><path stroke="#333" stroke-width="1.5" d="M18.004 60v24.387a1 1 0 0 0 1 1h28.039v-33.89h-29.04V56"/><path stroke="#333" stroke-dasharray="3 3" stroke-width="1.5" d="M47.098 54.67V26.834M43.727 43.54l-.743-3.433a16.68 16.68 0 0 0-7.268-10.492M50.5 43.541l.743-3.433a16.68 16.68 0 0 1 7.268-10.492"/><path fill="#fff" stroke="#fff" stroke-width="3" d="m50.032 9.47-2.307-4.232-2.308 4.232a2.5 2.5 0 0 1-1.735 1.26l-4.737.887 3.311 3.502a2.5 2.5 0 0 1 .663 2.04l-.62 4.779 4.353-2.067a2.5 2.5 0 0 1 2.145 0l4.354 2.067-.62-4.78a2.5 2.5 0 0 1 .662-2.039l3.31-3.502-4.736-.887a2.5 2.5 0 0 1-1.735-1.26Z"/><path stroke="#333" stroke-width="1.5" d="M48.602 3.715a1 1 0 0 0-1.755 0L44.1 8.751a1 1 0 0 1-.694.504l-5.638 1.056a1 1 0 0 0-.543 1.67l3.941 4.169a1 1 0 0 1 .265.815l-.738 5.689a1 1 0 0 0 1.42 1.032l5.183-2.46a1 1 0 0 1 .857 0l5.183 2.46a1 1 0 0 0 1.42-1.032l-.738-5.689a1 1 0 0 1 .265-.816l3.94-4.168a1 1 0 0 0-.542-1.67l-5.638-1.056a1 1 0 0 1-.694-.504z"/><path fill="#fff" stroke="#fff" stroke-width="3" d="m30.178 22.71.058-.578.455.362a2.5 2.5 0 0 0 2.088.488l.568-.123-.204.544a2.5 2.5 0 0 0 .181 2.137l.293.502-.58-.026a2.5 2.5 0 0 0-1.977.833l-.387.433-.155-.56a2.5 2.5 0 0 0-1.402-1.622l-.532-.234.485-.32a2.5 2.5 0 0 0 1.109-1.835Z"/><path stroke="#333" stroke-width="1.5" d="M28.836 21.07a1 1 0 0 1 1.618-.682l1.172.933a1 1 0 0 0 .835.195l1.464-.317a1 1 0 0 1 1.148 1.328l-.526 1.403a1 1 0 0 0 .073.854l.755 1.294a1 1 0 0 1-.909 1.503l-1.496-.066a1 1 0 0 0-.79.333l-.998 1.117a1 1 0 0 1-1.71-.4l-.4-1.443a1 1 0 0 0-.56-.649l-1.371-.603a1 1 0 0 1-.149-1.75l1.25-.826a1 1 0 0 0 .444-.734z"/><path fill="#fff" stroke="#fff" stroke-width="3" d="m69.948 20.32-.157-1.555-1.223.974a2.5 2.5 0 0 1-2.088.488l-1.527-.332.548 1.464a2.5 2.5 0 0 1-.181 2.136l-.787 1.35 1.561-.069a2.5 2.5 0 0 1 1.976.833l1.041 1.166.417-1.506a2.5 2.5 0 0 1 1.402-1.622l1.431-.63-1.304-.862a2.5 2.5 0 0 1-1.11-1.835Z"/><path stroke="#333" stroke-width="1.5" d="M71.191 17.702a1 1 0 0 0-1.618-.682l-1.94 1.546a1 1 0 0 1-.835.195l-2.423-.526a1 1 0 0 0-1.149 1.328l.87 2.322a1 1 0 0 1-.072.855l-1.249 2.142a1 1 0 0 0 .908 1.503l2.478-.11a1 1 0 0 1 .79.333l1.652 1.85a1 1 0 0 0 1.71-.4l.66-2.39a1 1 0 0 1 .561-.648l2.27-1a1 1 0 0 0 .149-1.75l-2.07-1.366a1 1 0 0 1-.443-.734z"/></g><defs><clipPath id="a"><path fill="#fff" d="M0 0h100v100H0z"/></clipPath></defs></svg>